<?xml version="1.0" encoding="utf-8"?>
<!-- Generator: Adobe Illustrator 23.0.6, SVG Export Plug-In . SVG Version: 6.00 Build 0)  -->
<svg version="1.1" id="Layer_1" xmlns="http://www.w3.org/2000/svg" xmlns:xlink="http://www.w3.org/1999/xlink" x="0px" y="0px"
	 viewBox="0 0 1366 542" style="enable-background:new 0 0 1366 542;" xml:space="preserve">
<style type="text/css">
	.st0{fill:none;}
	.st1{fill:none;stroke:#000000;stroke-width:2;stroke-miterlimit:10;}
	.st2{fill:url(#SVGID_1_);}
	.st3{opacity:2.000000e-02;fill:url(#black_lines);}
	.st4{opacity:2.000000e-02;}
</style>
<pattern  width="17" height="9.6" patternUnits="userSpaceOnUse" id="black_lines" viewBox="879 -504.5 17 9.6" style="overflow:visible;">
	<g>
		<rect x="879" y="-504.5" class="st0" width="17" height="9.6"/>
		<line class="st1" x1="408.5" y1="-0.9" x2="1774.5" y2="-768.9"/>
		<line class="st1" x1="391.5" y1="-0.9" x2="1757.5" y2="-768.9"/>
		<line class="st1" x1="374.5" y1="-0.9" x2="1740.5" y2="-768.9"/>
		<line class="st1" x1="357.5" y1="-0.9" x2="1723.5" y2="-768.9"/>
		<line class="st1" x1="340.5" y1="-0.9" x2="1706.5" y2="-768.9"/>
		<line class="st1" x1="323.5" y1="-0.9" x2="1689.5" y2="-768.9"/>
		<line class="st1" x1="306.5" y1="-0.9" x2="1672.5" y2="-768.9"/>
		<line class="st1" x1="289.5" y1="-0.9" x2="1655.5" y2="-768.9"/>
		<line class="st1" x1="272.5" y1="-0.9" x2="1638.5" y2="-768.9"/>
		<line class="st1" x1="255.5" y1="-0.9" x2="1621.5" y2="-768.9"/>
		<line class="st1" x1="238.5" y1="-0.9" x2="1604.5" y2="-768.9"/>
		<line class="st1" x1="221.5" y1="-0.9" x2="1587.5" y2="-768.9"/>
		<line class="st1" x1="204.5" y1="-0.9" x2="1570.5" y2="-768.9"/>
		<line class="st1" x1="187.5" y1="-0.9" x2="1553.5" y2="-768.9"/>
		<line class="st1" x1="170.5" y1="-0.9" x2="1536.5" y2="-768.9"/>
		<line class="st1" x1="153.5" y1="-0.9" x2="1519.5" y2="-768.9"/>
		<line class="st1" x1="136.5" y1="-0.9" x2="1502.5" y2="-768.9"/>
		<line class="st1" x1="119.5" y1="-0.9" x2="1485.5" y2="-768.9"/>
		<line class="st1" x1="102.5" y1="-0.9" x2="1468.5" y2="-768.9"/>
		<line class="st1" x1="85.5" y1="-0.9" x2="1451.5" y2="-768.9"/>
		<line class="st1" x1="68.5" y1="-0.9" x2="1434.5" y2="-768.9"/>
		<line class="st1" x1="51.5" y1="-0.9" x2="1417.5" y2="-768.9"/>
		<line class="st1" x1="34.5" y1="-0.9" x2="1400.5" y2="-768.9"/>
		<line class="st1" x1="17.5" y1="-0.9" x2="1383.5" y2="-768.9"/>
		<line class="st1" x1="0.5" y1="-0.9" x2="1366.5" y2="-768.9"/>
		<line class="st1" x1="408.5" y1="-10.4" x2="1774.5" y2="-778.4"/>
		<line class="st1" x1="391.5" y1="-10.4" x2="1757.5" y2="-778.4"/>
		<line class="st1" x1="374.5" y1="-10.4" x2="1740.5" y2="-778.4"/>
		<line class="st1" x1="357.5" y1="-10.4" x2="1723.5" y2="-778.4"/>
		<line class="st1" x1="340.5" y1="-10.4" x2="1706.5" y2="-778.4"/>
		<line class="st1" x1="323.5" y1="-10.4" x2="1689.5" y2="-778.4"/>
		<line class="st1" x1="306.5" y1="-10.4" x2="1672.5" y2="-778.4"/>
		<line class="st1" x1="289.5" y1="-10.4" x2="1655.5" y2="-778.4"/>
		<line class="st1" x1="272.5" y1="-10.4" x2="1638.5" y2="-778.4"/>
		<line class="st1" x1="255.5" y1="-10.4" x2="1621.5" y2="-778.4"/>
		<line class="st1" x1="238.5" y1="-10.4" x2="1604.5" y2="-778.4"/>
		<line class="st1" x1="221.5" y1="-10.4" x2="1587.5" y2="-778.4"/>
		<line class="st1" x1="204.5" y1="-10.4" x2="1570.5" y2="-778.4"/>
		<line class="st1" x1="187.5" y1="-10.4" x2="1553.5" y2="-778.4"/>
		<line class="st1" x1="170.5" y1="-10.4" x2="1536.5" y2="-778.4"/>
		<line class="st1" x1="153.5" y1="-10.4" x2="1519.5" y2="-778.4"/>
		<line class="st1" x1="136.5" y1="-10.4" x2="1502.5" y2="-778.4"/>
		<line class="st1" x1="119.5" y1="-10.4" x2="1485.5" y2="-778.4"/>
		<line class="st1" x1="102.5" y1="-10.4" x2="1468.5" y2="-778.4"/>
		<line class="st1" x1="85.5" y1="-10.4" x2="1451.5" y2="-778.4"/>
		<line class="st1" x1="68.5" y1="-10.4" x2="1434.5" y2="-778.4"/>
		<line class="st1" x1="51.5" y1="-10.4" x2="1417.5" y2="-778.4"/>
		<line class="st1" x1="34.5" y1="-10.4" x2="1400.5" y2="-778.4"/>
		<line class="st1" x1="17.5" y1="-10.4" x2="1383.5" y2="-778.4"/>
		<line class="st1" x1="0.5" y1="-10.4" x2="1366.5" y2="-778.4"/>
		<line class="st1" x1="408.5" y1="-20" x2="1774.5" y2="-788"/>
		<line class="st1" x1="391.5" y1="-20" x2="1757.5" y2="-788"/>
		<line class="st1" x1="374.5" y1="-20" x2="1740.5" y2="-788"/>
		<line class="st1" x1="357.5" y1="-20" x2="1723.5" y2="-788"/>
		<line class="st1" x1="340.5" y1="-20" x2="1706.5" y2="-788"/>
		<line class="st1" x1="323.5" y1="-20" x2="1689.5" y2="-788"/>
		<line class="st1" x1="306.5" y1="-20" x2="1672.5" y2="-788"/>
		<line class="st1" x1="289.5" y1="-20" x2="1655.5" y2="-788"/>
		<line class="st1" x1="272.5" y1="-20" x2="1638.5" y2="-788"/>
		<line class="st1" x1="255.5" y1="-20" x2="1621.5" y2="-788"/>
		<line class="st1" x1="238.5" y1="-20" x2="1604.5" y2="-788"/>
		<line class="st1" x1="221.5" y1="-20" x2="1587.5" y2="-788"/>
		<line class="st1" x1="204.5" y1="-20" x2="1570.5" y2="-788"/>
		<line class="st1" x1="187.5" y1="-20" x2="1553.5" y2="-788"/>
		<line class="st1" x1="170.5" y1="-20" x2="1536.5" y2="-788"/>
		<line class="st1" x1="153.5" y1="-20" x2="1519.5" y2="-788"/>
		<line class="st1" x1="136.5" y1="-20" x2="1502.5" y2="-788"/>
		<line class="st1" x1="119.5" y1="-20" x2="1485.5" y2="-788"/>
		<line class="st1" x1="102.5" y1="-20" x2="1468.5" y2="-788"/>
		<line class="st1" x1="85.5" y1="-20" x2="1451.5" y2="-788"/>
		<line class="st1" x1="68.5" y1="-20" x2="1434.5" y2="-788"/>
		<line class="st1" x1="51.5" y1="-20" x2="1417.5" y2="-788"/>
		<line class="st1" x1="34.5" y1="-20" x2="1400.5" y2="-788"/>
		<line class="st1" x1="17.5" y1="-20" x2="1383.5" y2="-788"/>
		<line class="st1" x1="0.5" y1="-20" x2="1366.5" y2="-788"/>
		<line class="st1" x1="408.5" y1="-29.6" x2="1774.5" y2="-797.6"/>
		<line class="st1" x1="391.5" y1="-29.6" x2="1757.5" y2="-797.6"/>
		<line class="st1" x1="374.5" y1="-29.6" x2="1740.5" y2="-797.6"/>
		<line class="st1" x1="357.5" y1="-29.6" x2="1723.5" y2="-797.6"/>
		<line class="st1" x1="340.5" y1="-29.6" x2="1706.5" y2="-797.6"/>
		<line class="st1" x1="323.5" y1="-29.6" x2="1689.5" y2="-797.6"/>
		<line class="st1" x1="306.5" y1="-29.6" x2="1672.5" y2="-797.6"/>
		<line class="st1" x1="289.5" y1="-29.6" x2="1655.5" y2="-797.6"/>
		<line class="st1" x1="272.5" y1="-29.6" x2="1638.5" y2="-797.6"/>
		<line class="st1" x1="255.5" y1="-29.6" x2="1621.5" y2="-797.6"/>
		<line class="st1" x1="238.5" y1="-29.6" x2="1604.5" y2="-797.6"/>
		<line class="st1" x1="221.5" y1="-29.6" x2="1587.5" y2="-797.6"/>
		<line class="st1" x1="204.5" y1="-29.6" x2="1570.5" y2="-797.6"/>
		<line class="st1" x1="187.5" y1="-29.6" x2="1553.5" y2="-797.6"/>
		<line class="st1" x1="170.5" y1="-29.6" x2="1536.5" y2="-797.6"/>
		<line class="st1" x1="153.5" y1="-29.6" x2="1519.5" y2="-797.6"/>
		<line class="st1" x1="136.5" y1="-29.6" x2="1502.5" y2="-797.6"/>
		<line class="st1" x1="119.5" y1="-29.6" x2="1485.5" y2="-797.6"/>
		<line class="st1" x1="102.5" y1="-29.6" x2="1468.5" y2="-797.6"/>
		<line class="st1" x1="85.5" y1="-29.6" x2="1451.5" y2="-797.6"/>
		<line class="st1" x1="68.5" y1="-29.6" x2="1434.5" y2="-797.6"/>
		<line class="st1" x1="51.5" y1="-29.6" x2="1417.5" y2="-797.6"/>
		<line class="st1" x1="34.5" y1="-29.6" x2="1400.5" y2="-797.6"/>
		<line class="st1" x1="17.5" y1="-29.6" x2="1383.5" y2="-797.6"/>
		<line class="st1" x1="0.5" y1="-29.6" x2="1366.5" y2="-797.6"/>
		<line class="st1" x1="408.5" y1="-39.2" x2="1774.5" y2="-807.2"/>
		<line class="st1" x1="391.5" y1="-39.2" x2="1757.5" y2="-807.2"/>
		<line class="st1" x1="374.5" y1="-39.2" x2="1740.5" y2="-807.2"/>
		<line class="st1" x1="357.5" y1="-39.2" x2="1723.5" y2="-807.2"/>
		<line class="st1" x1="340.5" y1="-39.2" x2="1706.5" y2="-807.2"/>
		<line class="st1" x1="323.5" y1="-39.2" x2="1689.5" y2="-807.2"/>
		<line class="st1" x1="306.5" y1="-39.2" x2="1672.5" y2="-807.2"/>
		<line class="st1" x1="289.5" y1="-39.2" x2="1655.5" y2="-807.2"/>
		<line class="st1" x1="272.5" y1="-39.2" x2="1638.5" y2="-807.2"/>
		<line class="st1" x1="255.5" y1="-39.2" x2="1621.5" y2="-807.2"/>
		<line class="st1" x1="238.5" y1="-39.2" x2="1604.5" y2="-807.2"/>
		<line class="st1" x1="221.5" y1="-39.2" x2="1587.5" y2="-807.2"/>
		<line class="st1" x1="204.5" y1="-39.2" x2="1570.5" y2="-807.2"/>
		<line class="st1" x1="187.5" y1="-39.2" x2="1553.5" y2="-807.2"/>
		<line class="st1" x1="170.5" y1="-39.2" x2="1536.5" y2="-807.2"/>
		<line class="st1" x1="153.5" y1="-39.2" x2="1519.5" y2="-807.2"/>
		<line class="st1" x1="136.5" y1="-39.2" x2="1502.5" y2="-807.2"/>
		<line class="st1" x1="119.5" y1="-39.2" x2="1485.5" y2="-807.2"/>
		<line class="st1" x1="102.5" y1="-39.2" x2="1468.5" y2="-807.2"/>
		<line class="st1" x1="85.5" y1="-39.2" x2="1451.5" y2="-807.2"/>
		<line class="st1" x1="68.5" y1="-39.2" x2="1434.5" y2="-807.2"/>
		<line class="st1" x1="51.5" y1="-39.2" x2="1417.5" y2="-807.2"/>
		<line class="st1" x1="34.5" y1="-39.2" x2="1400.5" y2="-807.2"/>
		<line class="st1" x1="17.5" y1="-39.2" x2="1383.5" y2="-807.2"/>
		<line class="st1" x1="0.5" y1="-39.2" x2="1366.5" y2="-807.2"/>
		<line class="st1" x1="408.5" y1="-48.7" x2="1774.5" y2="-816.7"/>
		<line class="st1" x1="391.5" y1="-48.7" x2="1757.5" y2="-816.7"/>
		<line class="st1" x1="374.5" y1="-48.7" x2="1740.5" y2="-816.7"/>
		<line class="st1" x1="357.5" y1="-48.7" x2="1723.5" y2="-816.7"/>
		<line class="st1" x1="340.5" y1="-48.7" x2="1706.5" y2="-816.7"/>
		<line class="st1" x1="323.5" y1="-48.7" x2="1689.5" y2="-816.7"/>
		<line class="st1" x1="306.5" y1="-48.7" x2="1672.5" y2="-816.7"/>
		<line class="st1" x1="289.5" y1="-48.7" x2="1655.5" y2="-816.7"/>
		<line class="st1" x1="272.5" y1="-48.7" x2="1638.5" y2="-816.7"/>
		<line class="st1" x1="255.5" y1="-48.7" x2="1621.5" y2="-816.7"/>
		<line class="st1" x1="238.5" y1="-48.7" x2="1604.5" y2="-816.7"/>
		<line class="st1" x1="221.5" y1="-48.7" x2="1587.5" y2="-816.7"/>
		<line class="st1" x1="204.5" y1="-48.7" x2="1570.5" y2="-816.7"/>
		<line class="st1" x1="187.5" y1="-48.7" x2="1553.5" y2="-816.7"/>
		<line class="st1" x1="170.5" y1="-48.7" x2="1536.5" y2="-816.7"/>
		<line class="st1" x1="153.5" y1="-48.7" x2="1519.5" y2="-816.7"/>
		<line class="st1" x1="136.5" y1="-48.7" x2="1502.5" y2="-816.7"/>
		<line class="st1" x1="119.5" y1="-48.7" x2="1485.5" y2="-816.7"/>
		<line class="st1" x1="102.5" y1="-48.7" x2="1468.5" y2="-816.7"/>
		<line class="st1" x1="85.5" y1="-48.7" x2="1451.5" y2="-816.7"/>
		<line class="st1" x1="68.5" y1="-48.7" x2="1434.5" y2="-816.7"/>
		<line class="st1" x1="51.5" y1="-48.7" x2="1417.5" y2="-816.7"/>
		<line class="st1" x1="34.5" y1="-48.7" x2="1400.5" y2="-816.7"/>
		<line class="st1" x1="17.5" y1="-48.7" x2="1383.5" y2="-816.7"/>
		<line class="st1" x1="0.5" y1="-48.7" x2="1366.5" y2="-816.7"/>
		<line class="st1" x1="408.5" y1="-58.3" x2="1774.5" y2="-826.3"/>
		<line class="st1" x1="391.5" y1="-58.3" x2="1757.5" y2="-826.3"/>
		<line class="st1" x1="374.5" y1="-58.3" x2="1740.5" y2="-826.3"/>
		<line class="st1" x1="357.5" y1="-58.3" x2="1723.5" y2="-826.3"/>
		<line class="st1" x1="340.5" y1="-58.3" x2="1706.5" y2="-826.3"/>
		<line class="st1" x1="323.5" y1="-58.3" x2="1689.5" y2="-826.3"/>
		<line class="st1" x1="306.5" y1="-58.3" x2="1672.5" y2="-826.3"/>
		<line class="st1" x1="289.5" y1="-58.3" x2="1655.5" y2="-826.3"/>
		<line class="st1" x1="272.5" y1="-58.3" x2="1638.5" y2="-826.3"/>
		<line class="st1" x1="255.5" y1="-58.3" x2="1621.5" y2="-826.3"/>
		<line class="st1" x1="238.5" y1="-58.3" x2="1604.5" y2="-826.3"/>
		<line class="st1" x1="221.5" y1="-58.3" x2="1587.5" y2="-826.3"/>
		<line class="st1" x1="204.5" y1="-58.3" x2="1570.5" y2="-826.3"/>
		<line class="st1" x1="187.5" y1="-58.3" x2="1553.5" y2="-826.3"/>
		<line class="st1" x1="170.5" y1="-58.3" x2="1536.5" y2="-826.3"/>
		<line class="st1" x1="153.5" y1="-58.3" x2="1519.5" y2="-826.3"/>
		<line class="st1" x1="136.5" y1="-58.3" x2="1502.5" y2="-826.3"/>
		<line class="st1" x1="119.5" y1="-58.3" x2="1485.5" y2="-826.3"/>
		<line class="st1" x1="102.5" y1="-58.3" x2="1468.5" y2="-826.3"/>
		<line class="st1" x1="85.5" y1="-58.3" x2="1451.5" y2="-826.3"/>
		<line class="st1" x1="68.5" y1="-58.3" x2="1434.5" y2="-826.3"/>
		<line class="st1" x1="51.5" y1="-58.3" x2="1417.5" y2="-826.3"/>
		<line class="st1" x1="34.5" y1="-58.3" x2="1400.5" y2="-826.3"/>
		<line class="st1" x1="17.5" y1="-58.3" x2="1383.5" y2="-826.3"/>
		<line class="st1" x1="0.5" y1="-58.3" x2="1366.5" y2="-826.3"/>
		<line class="st1" x1="408.5" y1="-67.9" x2="1774.5" y2="-835.9"/>
		<line class="st1" x1="391.5" y1="-67.9" x2="1757.5" y2="-835.9"/>
		<line class="st1" x1="374.5" y1="-67.9" x2="1740.5" y2="-835.9"/>
		<line class="st1" x1="357.5" y1="-67.9" x2="1723.5" y2="-835.9"/>
		<line class="st1" x1="340.5" y1="-67.9" x2="1706.5" y2="-835.9"/>
		<line class="st1" x1="323.5" y1="-67.9" x2="1689.5" y2="-835.9"/>
		<line class="st1" x1="306.5" y1="-67.9" x2="1672.5" y2="-835.9"/>
		<line class="st1" x1="289.5" y1="-67.9" x2="1655.5" y2="-835.9"/>
		<line class="st1" x1="272.5" y1="-67.9" x2="1638.5" y2="-835.9"/>
		<line class="st1" x1="255.5" y1="-67.9" x2="1621.5" y2="-835.9"/>
		<line class="st1" x1="238.5" y1="-67.9" x2="1604.5" y2="-835.9"/>
		<line class="st1" x1="221.5" y1="-67.9" x2="1587.5" y2="-835.9"/>
		<line class="st1" x1="204.5" y1="-67.9" x2="1570.5" y2="-835.9"/>
		<line class="st1" x1="187.5" y1="-67.9" x2="1553.5" y2="-835.9"/>
		<line class="st1" x1="170.5" y1="-67.9" x2="1536.5" y2="-835.9"/>
		<line class="st1" x1="153.5" y1="-67.9" x2="1519.5" y2="-835.9"/>
		<line class="st1" x1="136.5" y1="-67.9" x2="1502.5" y2="-835.9"/>
		<line class="st1" x1="119.5" y1="-67.9" x2="1485.5" y2="-835.9"/>
		<line class="st1" x1="102.5" y1="-67.9" x2="1468.5" y2="-835.9"/>
		<line class="st1" x1="85.5" y1="-67.9" x2="1451.5" y2="-835.9"/>
		<line class="st1" x1="68.5" y1="-67.9" x2="1434.5" y2="-835.9"/>
		<line class="st1" x1="51.5" y1="-67.9" x2="1417.5" y2="-835.9"/>
		<line class="st1" x1="34.5" y1="-67.9" x2="1400.5" y2="-835.9"/>
		<line class="st1" x1="17.5" y1="-67.9" x2="1383.5" y2="-835.9"/>
		<line class="st1" x1="0.5" y1="-67.9" x2="1366.5" y2="-835.9"/>
		<line class="st1" x1="408.5" y1="-77.5" x2="1774.5" y2="-845.5"/>
		<line class="st1" x1="391.5" y1="-77.5" x2="1757.5" y2="-845.5"/>
		<line class="st1" x1="374.5" y1="-77.5" x2="1740.5" y2="-845.5"/>
		<line class="st1" x1="357.5" y1="-77.5" x2="1723.5" y2="-845.5"/>
		<line class="st1" x1="340.5" y1="-77.5" x2="1706.5" y2="-845.5"/>
		<line class="st1" x1="323.5" y1="-77.5" x2="1689.5" y2="-845.5"/>
		<line class="st1" x1="306.5" y1="-77.5" x2="1672.5" y2="-845.5"/>
		<line class="st1" x1="289.5" y1="-77.5" x2="1655.5" y2="-845.5"/>
		<line class="st1" x1="272.5" y1="-77.5" x2="1638.5" y2="-845.5"/>
		<line class="st1" x1="255.5" y1="-77.5" x2="1621.5" y2="-845.5"/>
		<line class="st1" x1="238.5" y1="-77.5" x2="1604.5" y2="-845.5"/>
		<line class="st1" x1="221.5" y1="-77.5" x2="1587.5" y2="-845.5"/>
		<line class="st1" x1="204.5" y1="-77.5" x2="1570.5" y2="-845.5"/>
		<line class="st1" x1="187.5" y1="-77.5" x2="1553.5" y2="-845.5"/>
		<line class="st1" x1="170.5" y1="-77.5" x2="1536.5" y2="-845.5"/>
		<line class="st1" x1="153.5" y1="-77.5" x2="1519.5" y2="-845.5"/>
		<line class="st1" x1="136.5" y1="-77.5" x2="1502.5" y2="-845.5"/>
		<line class="st1" x1="119.5" y1="-77.5" x2="1485.5" y2="-845.5"/>
		<line class="st1" x1="102.5" y1="-77.5" x2="1468.5" y2="-845.5"/>
		<line class="st1" x1="85.5" y1="-77.5" x2="1451.5" y2="-845.5"/>
		<line class="st1" x1="68.5" y1="-77.5" x2="1434.5" y2="-845.5"/>
		<line class="st1" x1="51.5" y1="-77.5" x2="1417.5" y2="-845.5"/>
		<line class="st1" x1="34.5" y1="-77.5" x2="1400.5" y2="-845.5"/>
		<line class="st1" x1="17.5" y1="-77.5" x2="1383.5" y2="-845.5"/>
		<line class="st1" x1="0.5" y1="-77.5" x2="1366.5" y2="-845.5"/>
		<line class="st1" x1="408.5" y1="-87" x2="1774.5" y2="-855"/>
		<line class="st1" x1="391.5" y1="-87" x2="1757.5" y2="-855"/>
		<line class="st1" x1="374.5" y1="-87" x2="1740.5" y2="-855"/>
		<line class="st1" x1="357.5" y1="-87" x2="1723.5" y2="-855"/>
		<line class="st1" x1="340.5" y1="-87" x2="1706.5" y2="-855"/>
		<line class="st1" x1="323.5" y1="-87" x2="1689.5" y2="-855"/>
		<line class="st1" x1="306.5" y1="-87" x2="1672.5" y2="-855"/>
		<line class="st1" x1="289.5" y1="-87" x2="1655.5" y2="-855"/>
		<line class="st1" x1="272.5" y1="-87" x2="1638.5" y2="-855"/>
		<line class="st1" x1="255.5" y1="-87" x2="1621.5" y2="-855"/>
		<line class="st1" x1="238.5" y1="-87" x2="1604.5" y2="-855"/>
		<line class="st1" x1="221.5" y1="-87" x2="1587.5" y2="-855"/>
		<line class="st1" x1="204.5" y1="-87" x2="1570.5" y2="-855"/>
		<line class="st1" x1="187.5" y1="-87" x2="1553.5" y2="-855"/>
		<line class="st1" x1="170.5" y1="-87" x2="1536.5" y2="-855"/>
		<line class="st1" x1="153.5" y1="-87" x2="1519.5" y2="-855"/>
		<line class="st1" x1="136.5" y1="-87" x2="1502.5" y2="-855"/>
		<line class="st1" x1="119.5" y1="-87" x2="1485.5" y2="-855"/>
		<line class="st1" x1="102.5" y1="-87" x2="1468.5" y2="-855"/>
		<line class="st1" x1="85.5" y1="-87" x2="1451.5" y2="-855"/>
		<line class="st1" x1="68.5" y1="-87" x2="1434.5" y2="-855"/>
		<line class="st1" x1="51.5" y1="-87" x2="1417.5" y2="-855"/>
		<line class="st1" x1="34.5" y1="-87" x2="1400.5" y2="-855"/>
		<line class="st1" x1="17.5" y1="-87" x2="1383.5" y2="-855"/>
		<line class="st1" x1="0.5" y1="-87" x2="1366.5" y2="-855"/>
		<line class="st1" x1="408.5" y1="-96.6" x2="1774.5" y2="-864.6"/>
		<line class="st1" x1="391.5" y1="-96.6" x2="1757.5" y2="-864.6"/>
		<line class="st1" x1="374.5" y1="-96.6" x2="1740.5" y2="-864.6"/>
		<line class="st1" x1="357.5" y1="-96.6" x2="1723.5" y2="-864.6"/>
		<line class="st1" x1="340.5" y1="-96.6" x2="1706.5" y2="-864.6"/>
		<line class="st1" x1="323.5" y1="-96.6" x2="1689.5" y2="-864.6"/>
		<line class="st1" x1="306.5" y1="-96.6" x2="1672.5" y2="-864.6"/>
		<line class="st1" x1="289.5" y1="-96.6" x2="1655.5" y2="-864.6"/>
		<line class="st1" x1="272.5" y1="-96.6" x2="1638.5" y2="-864.6"/>
		<line class="st1" x1="255.5" y1="-96.6" x2="1621.5" y2="-864.6"/>
		<line class="st1" x1="238.5" y1="-96.6" x2="1604.5" y2="-864.6"/>
		<line class="st1" x1="221.5" y1="-96.6" x2="1587.5" y2="-864.6"/>
		<line class="st1" x1="204.5" y1="-96.6" x2="1570.5" y2="-864.6"/>
		<line class="st1" x1="187.5" y1="-96.6" x2="1553.5" y2="-864.6"/>
		<line class="st1" x1="170.5" y1="-96.6" x2="1536.5" y2="-864.6"/>
		<line class="st1" x1="153.5" y1="-96.6" x2="1519.5" y2="-864.6"/>
		<line class="st1" x1="136.5" y1="-96.6" x2="1502.5" y2="-864.6"/>
		<line class="st1" x1="119.5" y1="-96.6" x2="1485.5" y2="-864.6"/>
		<line class="st1" x1="102.5" y1="-96.6" x2="1468.5" y2="-864.6"/>
		<line class="st1" x1="85.5" y1="-96.6" x2="1451.5" y2="-864.6"/>
		<line class="st1" x1="68.5" y1="-96.6" x2="1434.5" y2="-864.6"/>
		<line class="st1" x1="51.5" y1="-96.6" x2="1417.5" y2="-864.6"/>
		<line class="st1" x1="34.5" y1="-96.6" x2="1400.5" y2="-864.6"/>
		<line class="st1" x1="17.5" y1="-96.6" x2="1383.5" y2="-864.6"/>
		<line class="st1" x1="0.5" y1="-96.6" x2="1366.5" y2="-864.6"/>
		<line class="st1" x1="408.5" y1="-106.2" x2="1774.5" y2="-874.2"/>
		<line class="st1" x1="391.5" y1="-106.2" x2="1757.5" y2="-874.2"/>
		<line class="st1" x1="374.5" y1="-106.2" x2="1740.5" y2="-874.2"/>
		<line class="st1" x1="357.5" y1="-106.2" x2="1723.5" y2="-874.2"/>
		<line class="st1" x1="340.5" y1="-106.2" x2="1706.5" y2="-874.2"/>
		<line class="st1" x1="323.5" y1="-106.2" x2="1689.5" y2="-874.2"/>
		<line class="st1" x1="306.5" y1="-106.2" x2="1672.5" y2="-874.2"/>
		<line class="st1" x1="289.5" y1="-106.2" x2="1655.5" y2="-874.2"/>
		<line class="st1" x1="272.5" y1="-106.2" x2="1638.5" y2="-874.2"/>
		<line class="st1" x1="255.5" y1="-106.2" x2="1621.5" y2="-874.2"/>
		<line class="st1" x1="238.5" y1="-106.2" x2="1604.5" y2="-874.2"/>
		<line class="st1" x1="221.5" y1="-106.2" x2="1587.5" y2="-874.2"/>
		<line class="st1" x1="204.5" y1="-106.2" x2="1570.5" y2="-874.2"/>
		<line class="st1" x1="187.5" y1="-106.2" x2="1553.5" y2="-874.2"/>
		<line class="st1" x1="170.5" y1="-106.2" x2="1536.5" y2="-874.2"/>
		<line class="st1" x1="153.5" y1="-106.2" x2="1519.5" y2="-874.2"/>
		<line class="st1" x1="136.5" y1="-106.2" x2="1502.5" y2="-874.2"/>
		<line class="st1" x1="119.5" y1="-106.2" x2="1485.5" y2="-874.2"/>
		<line class="st1" x1="102.5" y1="-106.2" x2="1468.5" y2="-874.2"/>
		<line class="st1" x1="85.5" y1="-106.2" x2="1451.5" y2="-874.2"/>
		<line class="st1" x1="68.5" y1="-106.2" x2="1434.5" y2="-874.2"/>
		<line class="st1" x1="51.5" y1="-106.2" x2="1417.5" y2="-874.2"/>
		<line class="st1" x1="34.5" y1="-106.2" x2="1400.5" y2="-874.2"/>
		<line class="st1" x1="17.5" y1="-106.2" x2="1383.5" y2="-874.2"/>
		<line class="st1" x1="0.5" y1="-106.2" x2="1366.5" y2="-874.2"/>
		<line class="st1" x1="408.5" y1="-115.7" x2="1774.5" y2="-883.7"/>
		<line class="st1" x1="391.5" y1="-115.7" x2="1757.5" y2="-883.7"/>
		<line class="st1" x1="374.5" y1="-115.7" x2="1740.5" y2="-883.7"/>
		<line class="st1" x1="357.5" y1="-115.7" x2="1723.5" y2="-883.7"/>
		<line class="st1" x1="340.5" y1="-115.7" x2="1706.5" y2="-883.7"/>
		<line class="st1" x1="323.5" y1="-115.7" x2="1689.5" y2="-883.7"/>
		<line class="st1" x1="306.5" y1="-115.7" x2="1672.5" y2="-883.7"/>
		<line class="st1" x1="289.5" y1="-115.7" x2="1655.5" y2="-883.7"/>
		<line class="st1" x1="272.5" y1="-115.7" x2="1638.5" y2="-883.7"/>
		<line class="st1" x1="255.5" y1="-115.7" x2="1621.5" y2="-883.7"/>
		<line class="st1" x1="238.5" y1="-115.7" x2="1604.5" y2="-883.7"/>
		<line class="st1" x1="221.5" y1="-115.7" x2="1587.5" y2="-883.7"/>
		<line class="st1" x1="204.5" y1="-115.7" x2="1570.5" y2="-883.7"/>
		<line class="st1" x1="187.5" y1="-115.7" x2="1553.5" y2="-883.7"/>
		<line class="st1" x1="170.5" y1="-115.7" x2="1536.5" y2="-883.7"/>
		<line class="st1" x1="153.5" y1="-115.7" x2="1519.5" y2="-883.7"/>
		<line class="st1" x1="136.5" y1="-115.7" x2="1502.5" y2="-883.7"/>
		<line class="st1" x1="119.5" y1="-115.7" x2="1485.5" y2="-883.7"/>
		<line class="st1" x1="102.5" y1="-115.7" x2="1468.5" y2="-883.7"/>
		<line class="st1" x1="85.5" y1="-115.7" x2="1451.5" y2="-883.7"/>
		<line class="st1" x1="68.5" y1="-115.7" x2="1434.5" y2="-883.7"/>
		<line class="st1" x1="51.5" y1="-115.7" x2="1417.5" y2="-883.7"/>
		<line class="st1" x1="34.5" y1="-115.7" x2="1400.5" y2="-883.7"/>
		<line class="st1" x1="17.5" y1="-115.7" x2="1383.5" y2="-883.7"/>
		<line class="st1" x1="0.5" y1="-115.7" x2="1366.5" y2="-883.7"/>
		<line class="st1" x1="408.5" y1="-125.3" x2="1774.5" y2="-893.3"/>
		<line class="st1" x1="391.5" y1="-125.3" x2="1757.5" y2="-893.3"/>
		<line class="st1" x1="374.5" y1="-125.3" x2="1740.5" y2="-893.3"/>
		<line class="st1" x1="357.5" y1="-125.3" x2="1723.5" y2="-893.3"/>
		<line class="st1" x1="340.5" y1="-125.3" x2="1706.5" y2="-893.3"/>
		<line class="st1" x1="323.5" y1="-125.3" x2="1689.5" y2="-893.3"/>
		<line class="st1" x1="306.5" y1="-125.3" x2="1672.5" y2="-893.3"/>
		<line class="st1" x1="289.5" y1="-125.3" x2="1655.5" y2="-893.3"/>
		<line class="st1" x1="272.5" y1="-125.3" x2="1638.5" y2="-893.3"/>
		<line class="st1" x1="255.5" y1="-125.3" x2="1621.5" y2="-893.3"/>
		<line class="st1" x1="238.5" y1="-125.3" x2="1604.5" y2="-893.3"/>
		<line class="st1" x1="221.5" y1="-125.3" x2="1587.5" y2="-893.3"/>
		<line class="st1" x1="204.5" y1="-125.3" x2="1570.5" y2="-893.3"/>
		<line class="st1" x1="187.5" y1="-125.3" x2="1553.5" y2="-893.3"/>
		<line class="st1" x1="170.5" y1="-125.3" x2="1536.5" y2="-893.3"/>
		<line class="st1" x1="153.5" y1="-125.3" x2="1519.5" y2="-893.3"/>
		<line class="st1" x1="136.5" y1="-125.3" x2="1502.5" y2="-893.3"/>
		<line class="st1" x1="119.5" y1="-125.3" x2="1485.5" y2="-893.3"/>
		<line class="st1" x1="102.5" y1="-125.3" x2="1468.5" y2="-893.3"/>
		<line class="st1" x1="85.5" y1="-125.3" x2="1451.5" y2="-893.3"/>
		<line class="st1" x1="68.5" y1="-125.3" x2="1434.5" y2="-893.3"/>
		<line class="st1" x1="51.5" y1="-125.3" x2="1417.5" y2="-893.3"/>
		<line class="st1" x1="34.5" y1="-125.3" x2="1400.5" y2="-893.3"/>
		<line class="st1" x1="17.5" y1="-125.3" x2="1383.5" y2="-893.3"/>
		<line class="st1" x1="0.5" y1="-125.3" x2="1366.5" y2="-893.3"/>
		<line class="st1" x1="408.5" y1="-134.9" x2="1774.5" y2="-902.9"/>
		<line class="st1" x1="391.5" y1="-134.9" x2="1757.5" y2="-902.9"/>
		<line class="st1" x1="374.5" y1="-134.9" x2="1740.5" y2="-902.9"/>
		<line class="st1" x1="357.5" y1="-134.9" x2="1723.5" y2="-902.9"/>
		<line class="st1" x1="340.5" y1="-134.9" x2="1706.5" y2="-902.9"/>
		<line class="st1" x1="323.5" y1="-134.9" x2="1689.5" y2="-902.9"/>
		<line class="st1" x1="306.5" y1="-134.9" x2="1672.5" y2="-902.9"/>
		<line class="st1" x1="289.5" y1="-134.9" x2="1655.5" y2="-902.9"/>
		<line class="st1" x1="272.5" y1="-134.9" x2="1638.5" y2="-902.9"/>
		<line class="st1" x1="255.5" y1="-134.9" x2="1621.5" y2="-902.9"/>
		<line class="st1" x1="238.5" y1="-134.9" x2="1604.5" y2="-902.9"/>
		<line class="st1" x1="221.5" y1="-134.9" x2="1587.5" y2="-902.9"/>
		<line class="st1" x1="204.5" y1="-134.9" x2="1570.5" y2="-902.9"/>
		<line class="st1" x1="187.5" y1="-134.9" x2="1553.5" y2="-902.9"/>
		<line class="st1" x1="170.5" y1="-134.9" x2="1536.5" y2="-902.9"/>
		<line class="st1" x1="153.5" y1="-134.9" x2="1519.5" y2="-902.9"/>
		<line class="st1" x1="136.5" y1="-134.9" x2="1502.5" y2="-902.9"/>
		<line class="st1" x1="119.5" y1="-134.9" x2="1485.5" y2="-902.9"/>
		<line class="st1" x1="102.5" y1="-134.9" x2="1468.5" y2="-902.9"/>
		<line class="st1" x1="85.5" y1="-134.9" x2="1451.5" y2="-902.9"/>
		<line class="st1" x1="68.5" y1="-134.9" x2="1434.5" y2="-902.9"/>
		<line class="st1" x1="51.5" y1="-134.9" x2="1417.5" y2="-902.9"/>
		<line class="st1" x1="34.5" y1="-134.9" x2="1400.5" y2="-902.9"/>
		<line class="st1" x1="17.5" y1="-134.9" x2="1383.5" y2="-902.9"/>
		<line class="st1" x1="0.5" y1="-134.9" x2="1366.5" y2="-902.9"/>
		<line class="st1" x1="408.5" y1="-144.5" x2="1774.5" y2="-912.5"/>
		<line class="st1" x1="391.5" y1="-144.5" x2="1757.5" y2="-912.5"/>
		<line class="st1" x1="374.5" y1="-144.5" x2="1740.5" y2="-912.5"/>
		<line class="st1" x1="357.5" y1="-144.5" x2="1723.5" y2="-912.5"/>
		<line class="st1" x1="340.5" y1="-144.5" x2="1706.5" y2="-912.5"/>
		<line class="st1" x1="323.5" y1="-144.5" x2="1689.5" y2="-912.5"/>
		<line class="st1" x1="306.5" y1="-144.5" x2="1672.5" y2="-912.5"/>
		<line class="st1" x1="289.5" y1="-144.5" x2="1655.5" y2="-912.5"/>
		<line class="st1" x1="272.5" y1="-144.5" x2="1638.5" y2="-912.5"/>
		<line class="st1" x1="255.5" y1="-144.5" x2="1621.5" y2="-912.5"/>
		<line class="st1" x1="238.5" y1="-144.5" x2="1604.5" y2="-912.5"/>
		<line class="st1" x1="221.5" y1="-144.5" x2="1587.5" y2="-912.5"/>
		<line class="st1" x1="204.5" y1="-144.5" x2="1570.5" y2="-912.5"/>
		<line class="st1" x1="187.5" y1="-144.5" x2="1553.5" y2="-912.5"/>
		<line class="st1" x1="170.5" y1="-144.5" x2="1536.5" y2="-912.5"/>
		<line class="st1" x1="153.5" y1="-144.5" x2="1519.5" y2="-912.5"/>
		<line class="st1" x1="136.5" y1="-144.5" x2="1502.5" y2="-912.5"/>
		<line class="st1" x1="119.5" y1="-144.5" x2="1485.5" y2="-912.5"/>
		<line class="st1" x1="102.5" y1="-144.5" x2="1468.5" y2="-912.5"/>
		<line class="st1" x1="85.5" y1="-144.5" x2="1451.5" y2="-912.5"/>
		<line class="st1" x1="68.5" y1="-144.5" x2="1434.5" y2="-912.5"/>
		<line class="st1" x1="51.5" y1="-144.5" x2="1417.5" y2="-912.5"/>
		<line class="st1" x1="34.5" y1="-144.5" x2="1400.5" y2="-912.5"/>
		<line class="st1" x1="17.5" y1="-144.5" x2="1383.5" y2="-912.5"/>
		<line class="st1" x1="0.5" y1="-144.5" x2="1366.5" y2="-912.5"/>
		<line class="st1" x1="408.5" y1="-154" x2="1774.5" y2="-922"/>
		<line class="st1" x1="391.5" y1="-154" x2="1757.5" y2="-922"/>
		<line class="st1" x1="374.5" y1="-154" x2="1740.5" y2="-922"/>
		<line class="st1" x1="357.5" y1="-154" x2="1723.5" y2="-922"/>
		<line class="st1" x1="340.5" y1="-154" x2="1706.5" y2="-922"/>
		<line class="st1" x1="323.5" y1="-154" x2="1689.5" y2="-922"/>
		<line class="st1" x1="306.5" y1="-154" x2="1672.5" y2="-922"/>
		<line class="st1" x1="289.5" y1="-154" x2="1655.5" y2="-922"/>
		<line class="st1" x1="272.5" y1="-154" x2="1638.5" y2="-922"/>
		<line class="st1" x1="255.5" y1="-154" x2="1621.5" y2="-922"/>
		<line class="st1" x1="238.5" y1="-154" x2="1604.5" y2="-922"/>
		<line class="st1" x1="221.5" y1="-154" x2="1587.5" y2="-922"/>
		<line class="st1" x1="204.5" y1="-154" x2="1570.5" y2="-922"/>
		<line class="st1" x1="187.5" y1="-154" x2="1553.5" y2="-922"/>
		<line class="st1" x1="170.5" y1="-154" x2="1536.5" y2="-922"/>
		<line class="st1" x1="153.5" y1="-154" x2="1519.5" y2="-922"/>
		<line class="st1" x1="136.5" y1="-154" x2="1502.5" y2="-922"/>
		<line class="st1" x1="119.5" y1="-154" x2="1485.5" y2="-922"/>
		<line class="st1" x1="102.5" y1="-154" x2="1468.5" y2="-922"/>
		<line class="st1" x1="85.5" y1="-154" x2="1451.5" y2="-922"/>
		<line class="st1" x1="68.5" y1="-154" x2="1434.5" y2="-922"/>
		<line class="st1" x1="51.5" y1="-154" x2="1417.5" y2="-922"/>
		<line class="st1" x1="34.5" y1="-154" x2="1400.5" y2="-922"/>
		<line class="st1" x1="17.5" y1="-154" x2="1383.5" y2="-922"/>
		<line class="st1" x1="0.5" y1="-154" x2="1366.5" y2="-922"/>
		<line class="st1" x1="408.5" y1="-163.6" x2="1774.5" y2="-931.6"/>
		<line class="st1" x1="391.5" y1="-163.6" x2="1757.5" y2="-931.6"/>
		<line class="st1" x1="374.5" y1="-163.6" x2="1740.5" y2="-931.6"/>
		<line class="st1" x1="357.5" y1="-163.6" x2="1723.5" y2="-931.6"/>
		<line class="st1" x1="340.5" y1="-163.6" x2="1706.5" y2="-931.6"/>
		<line class="st1" x1="323.5" y1="-163.6" x2="1689.5" y2="-931.6"/>
		<line class="st1" x1="306.5" y1="-163.6" x2="1672.5" y2="-931.6"/>
		<line class="st1" x1="289.5" y1="-163.6" x2="1655.5" y2="-931.6"/>
		<line class="st1" x1="272.5" y1="-163.6" x2="1638.5" y2="-931.6"/>
		<line class="st1" x1="255.5" y1="-163.6" x2="1621.5" y2="-931.6"/>
		<line class="st1" x1="238.5" y1="-163.6" x2="1604.5" y2="-931.6"/>
		<line class="st1" x1="221.5" y1="-163.6" x2="1587.5" y2="-931.6"/>
		<line class="st1" x1="204.5" y1="-163.6" x2="1570.5" y2="-931.6"/>
		<line class="st1" x1="187.5" y1="-163.6" x2="1553.5" y2="-931.6"/>
		<line class="st1" x1="170.5" y1="-163.6" x2="1536.5" y2="-931.6"/>
		<line class="st1" x1="153.5" y1="-163.6" x2="1519.5" y2="-931.6"/>
		<line class="st1" x1="136.5" y1="-163.6" x2="1502.5" y2="-931.6"/>
		<line class="st1" x1="119.5" y1="-163.6" x2="1485.5" y2="-931.6"/>
		<line class="st1" x1="102.5" y1="-163.6" x2="1468.5" y2="-931.6"/>
		<line class="st1" x1="85.5" y1="-163.6" x2="1451.5" y2="-931.6"/>
		<line class="st1" x1="68.5" y1="-163.6" x2="1434.5" y2="-931.6"/>
		<line class="st1" x1="51.5" y1="-163.6" x2="1417.5" y2="-931.6"/>
		<line class="st1" x1="34.5" y1="-163.6" x2="1400.5" y2="-931.6"/>
		<line class="st1" x1="17.5" y1="-163.6" x2="1383.5" y2="-931.6"/>
		<line class="st1" x1="0.5" y1="-163.6" x2="1366.5" y2="-931.6"/>
		<line class="st1" x1="408.5" y1="-173.2" x2="1774.5" y2="-941.2"/>
		<line class="st1" x1="391.5" y1="-173.2" x2="1757.5" y2="-941.2"/>
		<line class="st1" x1="374.5" y1="-173.2" x2="1740.5" y2="-941.2"/>
		<line class="st1" x1="357.5" y1="-173.2" x2="1723.5" y2="-941.2"/>
		<line class="st1" x1="340.5" y1="-173.2" x2="1706.5" y2="-941.2"/>
		<line class="st1" x1="323.5" y1="-173.2" x2="1689.5" y2="-941.2"/>
		<line class="st1" x1="306.5" y1="-173.2" x2="1672.5" y2="-941.2"/>
		<line class="st1" x1="289.5" y1="-173.2" x2="1655.5" y2="-941.2"/>
		<line class="st1" x1="272.5" y1="-173.2" x2="1638.5" y2="-941.2"/>
		<line class="st1" x1="255.5" y1="-173.2" x2="1621.5" y2="-941.2"/>
		<line class="st1" x1="238.5" y1="-173.2" x2="1604.5" y2="-941.2"/>
		<line class="st1" x1="221.5" y1="-173.2" x2="1587.5" y2="-941.2"/>
		<line class="st1" x1="204.5" y1="-173.2" x2="1570.5" y2="-941.2"/>
		<line class="st1" x1="187.5" y1="-173.2" x2="1553.5" y2="-941.2"/>
		<line class="st1" x1="170.5" y1="-173.2" x2="1536.5" y2="-941.2"/>
		<line class="st1" x1="153.5" y1="-173.2" x2="1519.5" y2="-941.2"/>
		<line class="st1" x1="136.5" y1="-173.2" x2="1502.5" y2="-941.2"/>
		<line class="st1" x1="119.5" y1="-173.2" x2="1485.5" y2="-941.2"/>
		<line class="st1" x1="102.5" y1="-173.2" x2="1468.5" y2="-941.2"/>
		<line class="st1" x1="85.5" y1="-173.2" x2="1451.5" y2="-941.2"/>
		<line class="st1" x1="68.5" y1="-173.2" x2="1434.5" y2="-941.2"/>
		<line class="st1" x1="51.5" y1="-173.2" x2="1417.5" y2="-941.2"/>
		<line class="st1" x1="34.5" y1="-173.2" x2="1400.5" y2="-941.2"/>
		<line class="st1" x1="17.5" y1="-173.2" x2="1383.5" y2="-941.2"/>
		<line class="st1" x1="0.5" y1="-173.2" x2="1366.5" y2="-941.2"/>
		<line class="st1" x1="408.5" y1="-182.8" x2="1774.5" y2="-950.8"/>
		<line class="st1" x1="391.5" y1="-182.8" x2="1757.5" y2="-950.8"/>
		<line class="st1" x1="374.5" y1="-182.8" x2="1740.5" y2="-950.8"/>
		<line class="st1" x1="357.5" y1="-182.8" x2="1723.5" y2="-950.8"/>
		<line class="st1" x1="340.5" y1="-182.8" x2="1706.5" y2="-950.8"/>
		<line class="st1" x1="323.5" y1="-182.8" x2="1689.5" y2="-950.8"/>
		<line class="st1" x1="306.5" y1="-182.8" x2="1672.5" y2="-950.8"/>
		<line class="st1" x1="289.5" y1="-182.8" x2="1655.5" y2="-950.8"/>
		<line class="st1" x1="272.5" y1="-182.8" x2="1638.5" y2="-950.8"/>
		<line class="st1" x1="255.5" y1="-182.8" x2="1621.5" y2="-950.8"/>
		<line class="st1" x1="238.5" y1="-182.8" x2="1604.5" y2="-950.8"/>
		<line class="st1" x1="221.5" y1="-182.8" x2="1587.5" y2="-950.8"/>
		<line class="st1" x1="204.5" y1="-182.8" x2="1570.5" y2="-950.8"/>
		<line class="st1" x1="187.5" y1="-182.8" x2="1553.5" y2="-950.8"/>
		<line class="st1" x1="170.5" y1="-182.8" x2="1536.5" y2="-950.8"/>
		<line class="st1" x1="153.5" y1="-182.8" x2="1519.5" y2="-950.8"/>
		<line class="st1" x1="136.5" y1="-182.8" x2="1502.5" y2="-950.8"/>
		<line class="st1" x1="119.5" y1="-182.8" x2="1485.5" y2="-950.8"/>
		<line class="st1" x1="102.5" y1="-182.8" x2="1468.5" y2="-950.8"/>
		<line class="st1" x1="85.5" y1="-182.8" x2="1451.5" y2="-950.8"/>
		<line class="st1" x1="68.5" y1="-182.8" x2="1434.5" y2="-950.8"/>
		<line class="st1" x1="51.5" y1="-182.8" x2="1417.5" y2="-950.8"/>
		<line class="st1" x1="34.5" y1="-182.8" x2="1400.5" y2="-950.8"/>
		<line class="st1" x1="17.5" y1="-182.8" x2="1383.5" y2="-950.8"/>
		<line class="st1" x1="0.5" y1="-182.8" x2="1366.5" y2="-950.8"/>
		<line class="st1" x1="408.5" y1="-192.3" x2="1774.5" y2="-960.3"/>
		<line class="st1" x1="391.5" y1="-192.3" x2="1757.5" y2="-960.3"/>
		<line class="st1" x1="374.5" y1="-192.3" x2="1740.5" y2="-960.3"/>
		<line class="st1" x1="357.5" y1="-192.3" x2="1723.5" y2="-960.3"/>
		<line class="st1" x1="340.5" y1="-192.3" x2="1706.5" y2="-960.3"/>
		<line class="st1" x1="323.5" y1="-192.3" x2="1689.5" y2="-960.3"/>
		<line class="st1" x1="306.5" y1="-192.3" x2="1672.5" y2="-960.3"/>
		<line class="st1" x1="289.5" y1="-192.3" x2="1655.5" y2="-960.3"/>
		<line class="st1" x1="272.5" y1="-192.3" x2="1638.5" y2="-960.3"/>
		<line class="st1" x1="255.5" y1="-192.3" x2="1621.5" y2="-960.3"/>
		<line class="st1" x1="238.5" y1="-192.3" x2="1604.5" y2="-960.3"/>
		<line class="st1" x1="221.5" y1="-192.3" x2="1587.5" y2="-960.3"/>
		<line class="st1" x1="204.5" y1="-192.3" x2="1570.5" y2="-960.3"/>
		<line class="st1" x1="187.5" y1="-192.3" x2="1553.5" y2="-960.3"/>
		<line class="st1" x1="170.5" y1="-192.3" x2="1536.5" y2="-960.3"/>
		<line class="st1" x1="153.5" y1="-192.3" x2="1519.5" y2="-960.3"/>
		<line class="st1" x1="136.5" y1="-192.3" x2="1502.5" y2="-960.3"/>
		<line class="st1" x1="119.5" y1="-192.3" x2="1485.5" y2="-960.3"/>
		<line class="st1" x1="102.5" y1="-192.3" x2="1468.5" y2="-960.3"/>
		<line class="st1" x1="85.5" y1="-192.3" x2="1451.5" y2="-960.3"/>
		<line class="st1" x1="68.5" y1="-192.3" x2="1434.5" y2="-960.3"/>
		<line class="st1" x1="51.5" y1="-192.3" x2="1417.5" y2="-960.3"/>
		<line class="st1" x1="34.5" y1="-192.3" x2="1400.5" y2="-960.3"/>
		<line class="st1" x1="17.5" y1="-192.3" x2="1383.5" y2="-960.3"/>
		<line class="st1" x1="0.5" y1="-192.3" x2="1366.5" y2="-960.3"/>
		<line class="st1" x1="408.5" y1="-201.9" x2="1774.5" y2="-969.9"/>
		<line class="st1" x1="391.5" y1="-201.9" x2="1757.5" y2="-969.9"/>
		<line class="st1" x1="374.5" y1="-201.9" x2="1740.5" y2="-969.9"/>
		<line class="st1" x1="357.5" y1="-201.9" x2="1723.5" y2="-969.9"/>
		<line class="st1" x1="340.5" y1="-201.9" x2="1706.5" y2="-969.9"/>
		<line class="st1" x1="323.5" y1="-201.9" x2="1689.5" y2="-969.9"/>
		<line class="st1" x1="306.5" y1="-201.9" x2="1672.5" y2="-969.9"/>
		<line class="st1" x1="289.5" y1="-201.9" x2="1655.5" y2="-969.9"/>
		<line class="st1" x1="272.5" y1="-201.9" x2="1638.5" y2="-969.9"/>
		<line class="st1" x1="255.5" y1="-201.9" x2="1621.5" y2="-969.9"/>
		<line class="st1" x1="238.5" y1="-201.9" x2="1604.5" y2="-969.9"/>
		<line class="st1" x1="221.5" y1="-201.9" x2="1587.5" y2="-969.9"/>
		<line class="st1" x1="204.5" y1="-201.9" x2="1570.5" y2="-969.9"/>
		<line class="st1" x1="187.5" y1="-201.9" x2="1553.5" y2="-969.9"/>
		<line class="st1" x1="170.5" y1="-201.9" x2="1536.5" y2="-969.9"/>
		<line class="st1" x1="153.5" y1="-201.9" x2="1519.5" y2="-969.9"/>
		<line class="st1" x1="136.5" y1="-201.9" x2="1502.5" y2="-969.9"/>
		<line class="st1" x1="119.5" y1="-201.9" x2="1485.5" y2="-969.9"/>
		<line class="st1" x1="102.5" y1="-201.9" x2="1468.5" y2="-969.9"/>
		<line class="st1" x1="85.5" y1="-201.9" x2="1451.5" y2="-969.9"/>
		<line class="st1" x1="68.5" y1="-201.9" x2="1434.5" y2="-969.9"/>
		<line class="st1" x1="51.5" y1="-201.9" x2="1417.5" y2="-969.9"/>
		<line class="st1" x1="34.5" y1="-201.9" x2="1400.5" y2="-969.9"/>
		<line class="st1" x1="17.5" y1="-201.9" x2="1383.5" y2="-969.9"/>
		<line class="st1" x1="0.5" y1="-201.9" x2="1366.5" y2="-969.9"/>
		<line class="st1" x1="408.5" y1="-211.5" x2="1774.5" y2="-979.5"/>
		<line class="st1" x1="391.5" y1="-211.5" x2="1757.5" y2="-979.5"/>
		<line class="st1" x1="374.5" y1="-211.5" x2="1740.5" y2="-979.5"/>
		<line class="st1" x1="357.5" y1="-211.5" x2="1723.5" y2="-979.5"/>
		<line class="st1" x1="340.5" y1="-211.5" x2="1706.5" y2="-979.5"/>
		<line class="st1" x1="323.5" y1="-211.5" x2="1689.5" y2="-979.5"/>
		<line class="st1" x1="306.5" y1="-211.5" x2="1672.5" y2="-979.5"/>
		<line class="st1" x1="289.5" y1="-211.5" x2="1655.5" y2="-979.5"/>
		<line class="st1" x1="272.5" y1="-211.5" x2="1638.5" y2="-979.5"/>
		<line class="st1" x1="255.5" y1="-211.5" x2="1621.5" y2="-979.5"/>
		<line class="st1" x1="238.5" y1="-211.5" x2="1604.5" y2="-979.5"/>
		<line class="st1" x1="221.5" y1="-211.5" x2="1587.5" y2="-979.5"/>
		<line class="st1" x1="204.5" y1="-211.5" x2="1570.5" y2="-979.5"/>
		<line class="st1" x1="187.5" y1="-211.5" x2="1553.5" y2="-979.5"/>
		<line class="st1" x1="170.5" y1="-211.5" x2="1536.5" y2="-979.5"/>
		<line class="st1" x1="153.5" y1="-211.5" x2="1519.5" y2="-979.5"/>
		<line class="st1" x1="136.5" y1="-211.5" x2="1502.5" y2="-979.5"/>
		<line class="st1" x1="119.5" y1="-211.5" x2="1485.5" y2="-979.5"/>
		<line class="st1" x1="102.5" y1="-211.5" x2="1468.5" y2="-979.5"/>
		<line class="st1" x1="85.5" y1="-211.5" x2="1451.5" y2="-979.5"/>
		<line class="st1" x1="68.5" y1="-211.5" x2="1434.5" y2="-979.5"/>
		<line class="st1" x1="51.5" y1="-211.5" x2="1417.5" y2="-979.5"/>
		<line class="st1" x1="34.5" y1="-211.5" x2="1400.5" y2="-979.5"/>
		<line class="st1" x1="17.5" y1="-211.5" x2="1383.5" y2="-979.5"/>
		<line class="st1" x1="0.5" y1="-211.5" x2="1366.5" y2="-979.5"/>
		<line class="st1" x1="408.5" y1="-221" x2="1774.5" y2="-989"/>
		<line class="st1" x1="391.5" y1="-221" x2="1757.5" y2="-989"/>
		<line class="st1" x1="374.5" y1="-221" x2="1740.5" y2="-989"/>
		<line class="st1" x1="357.5" y1="-221" x2="1723.5" y2="-989"/>
		<line class="st1" x1="340.5" y1="-221" x2="1706.5" y2="-989"/>
		<line class="st1" x1="323.5" y1="-221" x2="1689.5" y2="-989"/>
		<line class="st1" x1="306.5" y1="-221" x2="1672.5" y2="-989"/>
		<line class="st1" x1="289.5" y1="-221" x2="1655.5" y2="-989"/>
		<line class="st1" x1="272.5" y1="-221" x2="1638.5" y2="-989"/>
		<line class="st1" x1="255.5" y1="-221" x2="1621.5" y2="-989"/>
		<line class="st1" x1="238.5" y1="-221" x2="1604.5" y2="-989"/>
		<line class="st1" x1="221.5" y1="-221" x2="1587.5" y2="-989"/>
		<line class="st1" x1="204.5" y1="-221" x2="1570.5" y2="-989"/>
		<line class="st1" x1="187.5" y1="-221" x2="1553.5" y2="-989"/>
		<line class="st1" x1="170.5" y1="-221" x2="1536.5" y2="-989"/>
		<line class="st1" x1="153.5" y1="-221" x2="1519.5" y2="-989"/>
		<line class="st1" x1="136.5" y1="-221" x2="1502.5" y2="-989"/>
		<line class="st1" x1="119.5" y1="-221" x2="1485.5" y2="-989"/>
		<line class="st1" x1="102.5" y1="-221" x2="1468.5" y2="-989"/>
		<line class="st1" x1="85.5" y1="-221" x2="1451.5" y2="-989"/>
		<line class="st1" x1="68.5" y1="-221" x2="1434.5" y2="-989"/>
		<line class="st1" x1="51.5" y1="-221" x2="1417.5" y2="-989"/>
		<line class="st1" x1="34.5" y1="-221" x2="1400.5" y2="-989"/>
		<line class="st1" x1="17.5" y1="-221" x2="1383.5" y2="-989"/>
		<line class="st1" x1="0.5" y1="-221" x2="1366.5" y2="-989"/>
		<line class="st1" x1="408.5" y1="-230.6" x2="1774.5" y2="-998.6"/>
		<line class="st1" x1="391.5" y1="-230.6" x2="1757.5" y2="-998.6"/>
		<line class="st1" x1="374.5" y1="-230.6" x2="1740.5" y2="-998.6"/>
		<line class="st1" x1="357.5" y1="-230.6" x2="1723.5" y2="-998.6"/>
		<line class="st1" x1="340.5" y1="-230.6" x2="1706.5" y2="-998.6"/>
		<line class="st1" x1="323.5" y1="-230.6" x2="1689.5" y2="-998.6"/>
		<line class="st1" x1="306.5" y1="-230.6" x2="1672.5" y2="-998.6"/>
		<line class="st1" x1="289.5" y1="-230.6" x2="1655.5" y2="-998.6"/>
		<line class="st1" x1="272.5" y1="-230.6" x2="1638.5" y2="-998.6"/>
		<line class="st1" x1="255.5" y1="-230.6" x2="1621.5" y2="-998.6"/>
		<line class="st1" x1="238.5" y1="-230.6" x2="1604.5" y2="-998.6"/>
		<line class="st1" x1="221.5" y1="-230.6" x2="1587.5" y2="-998.6"/>
		<line class="st1" x1="204.5" y1="-230.6" x2="1570.5" y2="-998.6"/>
		<line class="st1" x1="187.5" y1="-230.6" x2="1553.5" y2="-998.6"/>
		<line class="st1" x1="170.5" y1="-230.6" x2="1536.5" y2="-998.6"/>
		<line class="st1" x1="153.5" y1="-230.6" x2="1519.5" y2="-998.6"/>
		<line class="st1" x1="136.5" y1="-230.6" x2="1502.5" y2="-998.6"/>
		<line class="st1" x1="119.5" y1="-230.6" x2="1485.5" y2="-998.6"/>
		<line class="st1" x1="102.5" y1="-230.6" x2="1468.5" y2="-998.6"/>
		<line class="st1" x1="85.5" y1="-230.6" x2="1451.5" y2="-998.6"/>
		<line class="st1" x1="68.5" y1="-230.6" x2="1434.5" y2="-998.6"/>
		<line class="st1" x1="51.5" y1="-230.6" x2="1417.5" y2="-998.6"/>
		<line class="st1" x1="34.5" y1="-230.6" x2="1400.5" y2="-998.6"/>
		<line class="st1" x1="17.5" y1="-230.6" x2="1383.5" y2="-998.6"/>
		<line class="st1" x1="0.5" y1="-230.6" x2="1366.5" y2="-998.6"/>
	</g>
</pattern>
<linearGradient id="SVGID_1_" gradientUnits="userSpaceOnUse" x1="0" y1="244.25" x2="1366.5" y2="244.25">
	<stop  offset="0.1392" style="stop-color:#12BAED"/>
	<stop  offset="1" style="stop-color:#30B3DE"/>
</linearGradient>
<path class="st2" d="M1366.5-0.5c-0.1,67.9-0.2,135.8-0.3,203.8c-0.1,68.6-0.2,137.2-0.3,205.8c-163.7,47.5-297.4,61.5-385,66
	c-49,2.5-93,2.5-133.9,1c-127.8-4.8-226.6-24.5-362.3-30.3c-39.3-1.7-81.7-2.1-128.8-0.7c-24.3,0.7-47.9,1.9-70.6,3.4
	c-6.8,0.5-13.5,0.9-20.1,1.4C151.7,458.6,60.1,475.8,0,489l0.2-178.5c0-49.5,0.1-99.1,0.2-148.6C0.4,107.8,0.4,53.6,0.5-0.5H1366.5z
	"/>
<path class="st3" d="M1066.3-0.5l-13.5,7.6L663.7,225.8L280,441.6l-14.7,8.2C151.7,458.6,60.1,475.8,0,489l0.2-178.5
	c0-49.5,0.1-99.1,0.2-148.6C0.4,107.8,0.4,53.6,0.5-0.5H1066.3z"/>
<path class="st4" d="M1366-0.5V409c-163.7,47.5-297.4,61.5-385,66c-49,2.5-93,2.5-133.9,1c18.7-39.7,45.1-83.9,81.4-133.1
	c2.1-2.8,4.1-5.6,6.1-8.4c94.6-131.5,120-243,118.2-327.4c-0.1-2.6-0.1-5.1-0.2-7.6H1366z"/>
<path class="st4" d="M1366,272.2V409c-163.7,47.5-297.4,61.5-385,66c-49,2.5-93,2.5-133.9,1c-127.8-4.8-226.6-24.5-362.3-30.3
	c-39.3-1.7-81.7-2.1-128.8-0.7c-24.3,0.7-47.9,1.9-70.6,3.4c-1.8-2.3-3.6-4.5-5.4-6.8C188.7,326.3,123.5,200.1,0.3,161.9
	C0.4,107.8,0.4,53.6,0.5-0.5h363c132.6,78.6,208.7,161.3,300.2,226.3c51.2,36.4,107.2,67.4,180.7,89c30.3,8.9,60.5,15.4,90.2,19.6
	C1102.7,358.7,1258.1,314.8,1366,272.2z"/>
</svg>
