<?xml version="1.0" encoding="utf-8"?>
<!-- Generator: Adobe Illustrator 24.0.0, SVG Export Plug-In . SVG Version: 6.00 Build 0)  -->
<svg version="1.1" id="Layer_1" xmlns="http://www.w3.org/2000/svg" xmlns:xlink="http://www.w3.org/1999/xlink" x="0px" y="0px"
	 viewBox="0 0 3174.7 1812.5" style="enable-background:new 0 0 3174.7 1812.5;" xml:space="preserve">
<style type="text/css">
	.st0{display:none;fill:#FFFFFF;}
	.st1{fill:#231F20;}
	.st2{fill:#13BBF0;}
</style>
<path class="st0" d="M1094.3,1301.8H668.1c-100.8,0-182.4-81.7-182.4-182.4V693.2c0-100.8,81.7-182.4,182.4-182.4h426.2
	c100.8,0,182.4,81.7,182.4,182.4v426.2C1276.7,1220.1,1195.1,1301.8,1094.3,1301.8z"/>
<g>
	<path class="st1" d="M1167.1,475.3l-122.7,189.3H521.9l0,0c0-104.6,84.8-189.3,189.3-189.3H1167.1L1167.1,475.3z"/>
	<path class="st1" d="M1167.1,931.2L1167.1,931.2c0,104.6-84.8,189.3-189.3,189.3H521.9v-422h189.3v232.7H1167.1z"/>
	<polygon class="st2" points="1168.1,475.3 1117.7,553.2 800.5,1042.7 750,1120.6 522.9,1120.6 573.3,1042.7 890.5,553.2 
		940.9,475.3 	"/>
</g>
<g>
	<path d="M1302.3,480.6h43.8v416.3h194.5v41.2h-238.4V480.6H1302.3z"/>
	<path d="M1698,710.4c0-130.1,100.9-235,231.1-235c130.1,0,231.1,104.9,231.1,235c0,129.5-100.9,234.4-231.1,234.4
		C1798.9,944.7,1698,839.8,1698,710.4z M2116.3,710.4c0-106.2-81.7-193.9-187.2-193.9c-105.6,0-187.2,87.6-187.2,193.9
		s81.7,193.2,187.2,193.2C2034.6,903.6,2116.3,816.6,2116.3,710.4z"/>
	<path d="M2652.8,516.5l-252.3,380.4h252.3v41.2h-308.7v-35.2l252.3-381.1h-247v-41.2h303.4V516.5z"/>
</g>
<g>
	<path d="M592.9,1308.5h-45.3l-10.3,27.1h-14.5l40.1-105.4h14.7l40.1,105.4h-14.5L592.9,1308.5z M588.4,1296.4l-18-47.6l-18,47.6
		H588.4z"/>
	<path d="M879.2,1230.3v105.4h-13.4l-48.6-80.3v80.3h-13.9v-105.4h13.7l48.3,80v-80H879.2z"/>
	<path d="M1134.7,1308.5h-45.3l-10.3,27.1h-14.5l40.1-105.4h14.7l40.1,105.4H1145L1134.7,1308.5z M1130.1,1296.4l-18-47.6l-18,47.6
		H1130.1z"/>
	<path d="M1345.1,1230.3h13.9v92.4h43.1v12.8h-56.9L1345.1,1230.3L1345.1,1230.3z"/>
	<path d="M1657.4,1230.3l-40.5,56.8v48.6H1603v-48.6l-40.1-56.8h16.6l30.6,43.1l30.8-43.1H1657.4z"/>
	<path d="M1909.4,1243.1h-32v92.4h-13.9v-92.4h-32v-12.8h78.1v12.8H1909.4z"/>
	<path d="M2097.8,1230.3h13.9v105.4h-13.9V1230.3z"/>
	<path d="M2304.1,1283.2c0-29.8,23.7-53.9,53.5-53.9c16.2,0,30.3,6.9,39.6,17.8l-10.1,8.5c-7.1-8.2-17.7-13.6-29.5-13.6
		c-22.2,0-39.6,18.5-39.6,41.2c0,22.4,17.3,41.2,39.6,41.2c11.8,0,22.4-5.4,29.5-13.6l10.1,8.5c-9.3,11-23.3,17.8-39.6,17.8
		C2327.7,1337.1,2304.1,1313,2304.1,1283.2z"/>
	<path d="M2580.6,1305.5h13.7c0.5,9.3,9.3,18.8,23.3,18.8c13.7,0,21.3-8.5,21.3-17.8c0-10.3-9.3-14.8-18.1-17.2l-13.6-3.3
		c-22.2-5.4-25.9-18.5-25.9-27.1c0-18.1,16.4-29.8,34.7-29.8c18.5,0,33.3,11.8,33.3,30.6h-13.7c0-10.6-8.7-17.7-20-17.7
		c-10.6,0-20.3,6.5-20.3,16.9c0,3.6,1.3,11.4,15.3,14.7l13.7,3.3c17.8,4.4,28.5,14.2,28.5,29.2c0,16.4-13.2,31.2-35.2,31.2
		C2595.5,1337.1,2580.7,1321.9,2580.6,1305.5z"/>
</g>
<rect x="1302.2" y="1077" width="1350.6" height="9"/>
</svg>
