<?xml version="1.0" encoding="utf-8"?>
<!-- Generator: Adobe Illustrator 24.0.0, SVG Export Plug-In . SVG Version: 6.00 Build 0)  -->
<svg version="1.1" id="Layer_1" xmlns="http://www.w3.org/2000/svg" xmlns:xlink="http://www.w3.org/1999/xlink" x="0px" y="0px"
	 viewBox="0 0 3174.7 1812.5" style="enable-background:new 0 0 3174.7 1812.5;" xml:space="preserve">
<style type="text/css">
	.st0{display:none;}
	.st1{display:none;fill:#FFFFFF;}
	.st2{fill:#231F20;}
	.st3{fill:#13BBF0;}
</style>
<g id="Layer_2_1_">
	<path class="st1" d="M1094.3,1301.8H668.1c-100.8,0-182.4-81.7-182.4-182.4V693.2c0-100.8,81.7-182.4,182.4-182.4h426.2
		c100.8,0,182.4,81.7,182.4,182.4v426.2C1276.7,1220.1,1195.1,1301.8,1094.3,1301.8z"/>
	<path class="st2" d="M1203.3,584.1l-122.7,189.3H558.1l0,0c0-104.6,84.8-189.3,189.3-189.3L1203.3,584.1L1203.3,584.1z"/>
	<path class="st2" d="M1203.3,1040L1203.3,1040c0,104.6-84.8,189.3-189.3,189.3H558.1v-422h189.3V1040H1203.3z"/>
	<polygon class="st3" points="1204.3,584.1 1153.9,662 836.7,1151.5 786.2,1229.4 559.1,1229.4 609.5,1151.5 926.7,662 977.1,584.1 
			"/>
</g>
<g>
	<path d="M1338.5,589.4h43.8v416.3h194.5v41.2h-238.4V589.4z"/>
	<path d="M1734.2,819.2c0-130.1,100.9-235,231.1-235c130.1,0,231.1,104.9,231.1,235c0,129.5-100.9,234.4-231.1,234.4
		C1835.1,1053.5,1734.2,948.6,1734.2,819.2z M2152.5,819.2c0-106.2-81.7-193.9-187.2-193.9c-105.6,0-187.2,87.6-187.2,193.9
		s81.7,193.2,187.2,193.2C2070.8,1012.4,2152.5,925.4,2152.5,819.2z"/>
	<path d="M2689,625.3l-252.3,380.4H2689v41.2h-308.7v-35.2l252.3-381.1h-247v-41.2H2689V625.3z"/>
</g>
<g>
	<path d="M1382.9,1174.9h-28.7l-6.5,17.2h-9.2l25.4-66.8h9.3l25.4,66.8h-9.2L1382.9,1174.9z M1380,1167.2l-11.4-30.2l-11.4,30.2
		H1380z"/>
	<path d="M1564.4,1125.3v66.8h-8.5l-30.8-50.9v50.9h-8.8v-66.8h8.7l30.6,50.7v-50.7H1564.4z"/>
	<path d="M1726.4,1174.9h-28.7l-6.5,17.2h-9.2l25.4-66.8h9.3l25.4,66.8h-9.2L1726.4,1174.9z M1723.5,1167.2l-11.4-30.2l-11.4,30.2
		H1723.5z"/>
	<path d="M1859.8,1125.3h8.8v58.6h27.3v8.1h-36.1V1125.3z"/>
	<path d="M2057.8,1125.3l-25.7,36v30.8h-8.8v-30.8l-25.4-36h10.5l19.4,27.3l19.5-27.3H2057.8z"/>
	<path d="M2217.6,1133.4h-20.3v58.6h-8.8v-58.6h-20.3v-8.1h49.5V1133.4z"/>
	<path d="M2337,1125.3h8.8v66.8h-8.8V1125.3z"/>
	<path d="M2467.8,1158.8c0-18.9,15-34.2,33.9-34.2c10.3,0,19.2,4.4,25.1,11.3l-6.4,5.4c-4.5-5.2-11.2-8.6-18.7-8.6
		c-14.1,0-25.1,11.7-25.1,26.1c0,14.2,11,26.1,25.1,26.1c7.5,0,14.2-3.4,18.7-8.6l6.4,5.4c-5.9,7-14.8,11.3-25.1,11.3
		C2482.8,1193,2467.8,1177.7,2467.8,1158.8z"/>
	<path d="M2643.1,1173h8.7c0.3,5.9,5.9,11.9,14.8,11.9c8.7,0,13.5-5.4,13.5-11.3c0-6.5-5.9-9.4-11.5-10.9l-8.6-2.1
		c-14.1-3.4-16.4-11.7-16.4-17.2c0-11.5,10.4-18.9,22-18.9c11.7,0,21.1,7.5,21.1,19.4h-8.7c0-6.7-5.5-11.2-12.7-11.2
		c-6.7,0-12.9,4.1-12.9,10.7c0,2.3,0.8,7.2,9.7,9.3l8.7,2.1c11.3,2.8,18.1,9,18.1,18.5c0,10.4-8.4,19.8-22.3,19.8
		C2652.6,1193,2643.2,1183.4,2643.1,1173z"/>
</g>
<rect x="559.1" y="1337.9" width="2129.9" height="18"/>
</svg>
