<?xml version="1.0" encoding="utf-8"?>
<!-- Generator: Adobe Illustrator 23.0.6, SVG Export Plug-In . SVG Version: 6.00 Build 0)  -->
<svg version="1.1" id="Layer_1" xmlns="http://www.w3.org/2000/svg" xmlns:xlink="http://www.w3.org/1999/xlink" x="0px" y="0px"
	 viewBox="0 0 1817.6 492" style="enable-background:new 0 0 1817.6 492;" xml:space="preserve">
<style type="text/css">
	.st0{display:none;}
	.st1{fill:#FFFFFF;}
	.st2{display:inline;stroke:#FFFFFF;stroke-width:7;stroke-miterlimit:10;}
	.st3{display:inline;}
	.st4{display:none;fill:none;stroke:#FFFFFF;stroke-width:4;stroke-miterlimit:10;}
</style>
<g>
	<rect y="16.6" width="1817.6" height="467.8"/>
</g>
<g>
	<g id="Pointless_Layer" class="st0">
	</g>
	<g id="The_Logo_Itself">
		<g id="Top_Of_Z">
			<path class="st1" d="M339.2,93.8l-44.6,68.8H50.2c6.7-39,40.7-68.8,81.6-68.8H339.2 M364.9,79.8h-233
				c-53.5,0-96.8,43.3-96.8,96.8l0,0h267.1L364.9,79.8L364.9,79.8z"/>
		</g>
		<g id="L">
			<path class="st1" d="M117.9,207.9v104.9v14h14h217.9c-6.7,39-40.7,68.8-81.6,68.8H49.1V207.9H117.9 M131.9,193.9H35.1v215.7
				h233.1c53.5,0,96.8-43.3,96.8-96.8l0,0H131.9V193.9L131.9,193.9z"/>
		</g>
		<polygon id="Black_Slash" class="st1" points="364.9,79.8 339.1,119.6 177,369.8 151.2,409.6 35.1,409.6 60.8,369.8 223,119.6 
			248.8,79.8 		"/>
	</g>
</g>
<g class="st0">
	<path class="st2" d="M691.9,115.5h-57.7c-27.2,0-49.3,22.1-49.3,49.3v57.7c0,27.4,22.2,49.6,49.6,49.6h57.4
		c27.4,0,49.6-22.2,49.6-49.6v-57.4C741.5,137.7,719.3,115.5,691.9,115.5z M702.3,208.1c0,13.7-11.1,24.8-24.8,24.8h-28.7
		c-13.7,0-24.8-11.1-24.8-24.8v-28.9c0-13.6,11-24.6,24.7-24.6h28.9c13.7,0,24.8,11.1,24.8,24.8V208.1z"/>
	<g class="st3">
		<path d="M418.2,272.8V171.9h34.1v59.5h98.9c-1.5,23.1-17.8,41.4-37.5,41.4H418.2z"/>
		<path class="st1" d="M448.8,175.4v52.5v7h7l91.5,0c-2.7,19.5-16.8,34.4-33.6,34.4h-92v-93.9H448.8 M455.8,168.4h-41.1v107.9h99
			c22.7,0,41.1-21.7,41.1-48.4v0h-99V168.4L455.8,168.4z"/>
	</g>
	<g class="st3">
		<rect x="418.2" y="118.2" width="41.4" height="111.2"/>
		<path class="st1" d="M456.1,121.7V226h-34.4V121.7H456.1 M463.1,114.7h-48.4V233h48.4V114.7L463.1,114.7z"/>
	</g>
	<g class="st3">
		<rect x="421.7" y="147.7" width="34.3" height="88.3"/>
	</g>
	<g class="st3">
		<path d="M779.1,272.9l26.8-41.4h128c-1.8,23.1-21.2,41.4-44.8,41.4H779.1z"/>
		<path class="st1" d="M930,235c-3.3,19.5-20.4,34.4-40.8,34.4H785.6l22.3-34.4H930 M937.6,228H804.1l-31.4,48.4h116.5
			C916,276.4,937.6,254.7,937.6,228L937.6,228L937.6,228z"/>
	</g>
	<g class="st3">
		<path d="M776.3,156.2c1.8-23.1,21.2-41.4,44.8-41.4h110.1l-26.8,41.4H776.3z"/>
		<path class="st1" d="M924.8,118.3l-22.3,34.4l-122.2,0c3.3-19.5,20.4-34.4,40.8-34.4H924.8 M937.6,111.3H821.1
			c-26.7,0-48.4,21.7-48.4,48.4v0h133.6L937.6,111.3L937.6,111.3z"/>
	</g>
	<polygon class="st2" points="932.1,114.7 920.1,133.8 844.8,254 832.8,273.1 778.8,273.1 790.8,254 866.1,133.8 878.1,114.7 	"/>
</g>
<g id="Loz_Anltcs">
	<g>
		<path class="st1" d="M504.4,354.7H453l-11.6,30.7h-16.5l45.4-119.5H487l45.4,119.5H516L504.4,354.7z M499.2,340.9l-20.5-54.1
			l-20.5,54.1H499.2z"/>
		<path class="st1" d="M696.4,265.9v119.5h-15.3L626,294.4v91.1h-15.8V265.9h15.6l54.8,90.7v-90.7H696.4z"/>
		<path class="st1" d="M853.6,354.7h-51.3l-11.6,30.7h-16.5l45.4-119.5h16.7l45.4,119.5h-16.5L853.6,354.7z M848.4,340.9l-20.5-54.1
			l-20.5,54.1H848.4z"/>
		<path class="st1" d="M959.4,265.9h15.8v104.9h48.9v14.6h-64.7V265.9z"/>
		<path class="st1" d="M1181,265.9l-46,64.4v55.2h-15.8v-55.2l-45.4-64.4h18.7l34.7,48.9l34.9-48.9H1181z"/>
		<path class="st1" d="M1334.2,280.5h-36.4v104.9H1282V280.5h-36.4v-14.6h88.6V280.5z"/>
		<path class="st1" d="M1415,265.9h15.8v119.5H1415V265.9z"/>
		<path class="st1" d="M1516.4,325.9c0-33.8,26.9-61.2,60.7-61.2c18.4,0,34.3,7.8,44.9,20.3l-11.4,9.7c-8-9.4-20.1-15.4-33.5-15.4
			c-25.1,0-44.9,21-44.9,46.7c0,25.5,19.8,46.7,44.9,46.7c13.4,0,25.5-6.1,33.5-15.4l11.4,9.7c-10.6,12.5-26.5,20.3-44.9,20.3
			C1543.2,387.2,1516.4,359.8,1516.4,325.9z"/>
		<path class="st1" d="M1697.3,351.3h15.6c0.5,10.6,10.6,21.3,26.5,21.3c15.6,0,24.1-9.7,24.1-20.3c0-11.6-10.6-16.8-20.6-19.4
			l-15.4-3.8c-25.3-6.1-29.3-21-29.3-30.7c0-20.6,18.6-33.8,39.4-33.8c21,0,37.8,13.4,37.8,34.7h-15.6c0-12-9.9-20.1-22.7-20.1
			c-12,0-23.1,7.3-23.1,19.1c0,4.2,1.4,12.8,17.3,16.7l15.6,3.8c20.3,5,32.4,16.1,32.4,33.1c0,18.6-15.1,35.4-39.9,35.4
			C1714.3,387.2,1697.5,369.8,1697.3,351.3z"/>
	</g>
	<g>
		<path class="st1" d="M441.1,97.7h15.8v104.9h48.9v14.6h-64.7V97.7z"/>
		<path class="st1" d="M588.3,157.8c0-34,26.4-61.4,60.4-61.4c34.2,0,60.7,27.4,60.7,61.4c0,33.8-26.5,61.2-60.7,61.2
			C614.6,219,588.3,191.6,588.3,157.8z M693.5,157.8c0-25.7-19.4-46.8-44.9-46.8c-25.2,0-44.6,21.2-44.6,46.8
			c0,25.5,19.4,46.7,44.6,46.7C674.1,204.4,693.5,183.3,693.5,157.8z"/>
		<path class="st1" d="M882.7,111.3l-63.8,91.4h63.8v14.6h-83.3v-13.5l63.5-91.4h-61.2V97.7h81V111.3z"/>
	</g>
</g>
<line class="st4" x1="662.8" y1="305.6" x2="1082.2" y2="305.6"/>
<line class="st4" x1="662.8" y1="244.7" x2="1082.2" y2="244.7"/>
</svg>
