<?xml version="1.0" encoding="utf-8"?>
<!-- Generator: Adobe Illustrator 23.0.6, SVG Export Plug-In . SVG Version: 6.00 Build 0)  -->
<svg version="1.1" id="Layer_1" xmlns="http://www.w3.org/2000/svg" xmlns:xlink="http://www.w3.org/1999/xlink" x="0px" y="0px"
	 viewBox="0 0 1366 537" style="enable-background:new 0 0 1366 537;" xml:space="preserve">
<style type="text/css">
	.st0{fill:none;}
	.st1{fill:none;stroke:#000000;stroke-width:2;stroke-miterlimit:10;}
	.st2{opacity:2.000000e-02;fill:none;}
	.st3{opacity:2.000000e-02;}
	.st4{opacity:3.000000e-02;fill:url(#black_lines_2);}
</style>
<pattern  width="17" height="9.6" patternUnits="userSpaceOnUse" id="black_lines_2" viewBox="879 -504.5 17 9.6" style="overflow:visible;">
	<g>
		<rect x="879" y="-504.5" class="st0" width="17" height="9.6"/>
		<line class="st1" x1="408.5" y1="-0.9" x2="1774.5" y2="-768.9"/>
		<line class="st1" x1="391.5" y1="-0.9" x2="1757.5" y2="-768.9"/>
		<line class="st1" x1="374.5" y1="-0.9" x2="1740.5" y2="-768.9"/>
		<line class="st1" x1="357.5" y1="-0.9" x2="1723.5" y2="-768.9"/>
		<line class="st1" x1="340.5" y1="-0.9" x2="1706.5" y2="-768.9"/>
		<line class="st1" x1="323.5" y1="-0.9" x2="1689.5" y2="-768.9"/>
		<line class="st1" x1="306.5" y1="-0.9" x2="1672.5" y2="-768.9"/>
		<line class="st1" x1="289.5" y1="-0.9" x2="1655.5" y2="-768.9"/>
		<line class="st1" x1="272.5" y1="-0.9" x2="1638.5" y2="-768.9"/>
		<line class="st1" x1="255.5" y1="-0.9" x2="1621.5" y2="-768.9"/>
		<line class="st1" x1="238.5" y1="-0.9" x2="1604.5" y2="-768.9"/>
		<line class="st1" x1="221.5" y1="-0.9" x2="1587.5" y2="-768.9"/>
		<line class="st1" x1="204.5" y1="-0.9" x2="1570.5" y2="-768.9"/>
		<line class="st1" x1="187.5" y1="-0.9" x2="1553.5" y2="-768.9"/>
		<line class="st1" x1="170.5" y1="-0.9" x2="1536.5" y2="-768.9"/>
		<line class="st1" x1="153.5" y1="-0.9" x2="1519.5" y2="-768.9"/>
		<line class="st1" x1="136.5" y1="-0.9" x2="1502.5" y2="-768.9"/>
		<line class="st1" x1="119.5" y1="-0.9" x2="1485.5" y2="-768.9"/>
		<line class="st1" x1="102.5" y1="-0.9" x2="1468.5" y2="-768.9"/>
		<line class="st1" x1="85.5" y1="-0.9" x2="1451.5" y2="-768.9"/>
		<line class="st1" x1="68.5" y1="-0.9" x2="1434.5" y2="-768.9"/>
		<line class="st1" x1="51.5" y1="-0.9" x2="1417.5" y2="-768.9"/>
		<line class="st1" x1="34.5" y1="-0.9" x2="1400.5" y2="-768.9"/>
		<line class="st1" x1="17.5" y1="-0.9" x2="1383.5" y2="-768.9"/>
		<line class="st1" x1="0.5" y1="-0.9" x2="1366.5" y2="-768.9"/>
		<line class="st1" x1="408.5" y1="-10.4" x2="1774.5" y2="-778.4"/>
		<line class="st1" x1="391.5" y1="-10.4" x2="1757.5" y2="-778.4"/>
		<line class="st1" x1="374.5" y1="-10.4" x2="1740.5" y2="-778.4"/>
		<line class="st1" x1="357.5" y1="-10.4" x2="1723.5" y2="-778.4"/>
		<line class="st1" x1="340.5" y1="-10.4" x2="1706.5" y2="-778.4"/>
		<line class="st1" x1="323.5" y1="-10.4" x2="1689.5" y2="-778.4"/>
		<line class="st1" x1="306.5" y1="-10.4" x2="1672.5" y2="-778.4"/>
		<line class="st1" x1="289.5" y1="-10.4" x2="1655.5" y2="-778.4"/>
		<line class="st1" x1="272.5" y1="-10.4" x2="1638.5" y2="-778.4"/>
		<line class="st1" x1="255.5" y1="-10.4" x2="1621.5" y2="-778.4"/>
		<line class="st1" x1="238.5" y1="-10.4" x2="1604.5" y2="-778.4"/>
		<line class="st1" x1="221.5" y1="-10.4" x2="1587.5" y2="-778.4"/>
		<line class="st1" x1="204.5" y1="-10.4" x2="1570.5" y2="-778.4"/>
		<line class="st1" x1="187.5" y1="-10.4" x2="1553.5" y2="-778.4"/>
		<line class="st1" x1="170.5" y1="-10.4" x2="1536.5" y2="-778.4"/>
		<line class="st1" x1="153.5" y1="-10.4" x2="1519.5" y2="-778.4"/>
		<line class="st1" x1="136.5" y1="-10.4" x2="1502.5" y2="-778.4"/>
		<line class="st1" x1="119.5" y1="-10.4" x2="1485.5" y2="-778.4"/>
		<line class="st1" x1="102.5" y1="-10.4" x2="1468.5" y2="-778.4"/>
		<line class="st1" x1="85.5" y1="-10.4" x2="1451.5" y2="-778.4"/>
		<line class="st1" x1="68.5" y1="-10.4" x2="1434.5" y2="-778.4"/>
		<line class="st1" x1="51.5" y1="-10.4" x2="1417.5" y2="-778.4"/>
		<line class="st1" x1="34.5" y1="-10.4" x2="1400.5" y2="-778.4"/>
		<line class="st1" x1="17.5" y1="-10.4" x2="1383.5" y2="-778.4"/>
		<line class="st1" x1="0.5" y1="-10.4" x2="1366.5" y2="-778.4"/>
		<line class="st1" x1="408.5" y1="-20" x2="1774.5" y2="-788"/>
		<line class="st1" x1="391.5" y1="-20" x2="1757.5" y2="-788"/>
		<line class="st1" x1="374.5" y1="-20" x2="1740.5" y2="-788"/>
		<line class="st1" x1="357.5" y1="-20" x2="1723.5" y2="-788"/>
		<line class="st1" x1="340.5" y1="-20" x2="1706.5" y2="-788"/>
		<line class="st1" x1="323.5" y1="-20" x2="1689.5" y2="-788"/>
		<line class="st1" x1="306.5" y1="-20" x2="1672.5" y2="-788"/>
		<line class="st1" x1="289.5" y1="-20" x2="1655.5" y2="-788"/>
		<line class="st1" x1="272.5" y1="-20" x2="1638.5" y2="-788"/>
		<line class="st1" x1="255.5" y1="-20" x2="1621.5" y2="-788"/>
		<line class="st1" x1="238.5" y1="-20" x2="1604.5" y2="-788"/>
		<line class="st1" x1="221.5" y1="-20" x2="1587.5" y2="-788"/>
		<line class="st1" x1="204.5" y1="-20" x2="1570.5" y2="-788"/>
		<line class="st1" x1="187.5" y1="-20" x2="1553.5" y2="-788"/>
		<line class="st1" x1="170.5" y1="-20" x2="1536.5" y2="-788"/>
		<line class="st1" x1="153.5" y1="-20" x2="1519.5" y2="-788"/>
		<line class="st1" x1="136.5" y1="-20" x2="1502.5" y2="-788"/>
		<line class="st1" x1="119.5" y1="-20" x2="1485.5" y2="-788"/>
		<line class="st1" x1="102.5" y1="-20" x2="1468.5" y2="-788"/>
		<line class="st1" x1="85.5" y1="-20" x2="1451.5" y2="-788"/>
		<line class="st1" x1="68.5" y1="-20" x2="1434.5" y2="-788"/>
		<line class="st1" x1="51.5" y1="-20" x2="1417.5" y2="-788"/>
		<line class="st1" x1="34.5" y1="-20" x2="1400.5" y2="-788"/>
		<line class="st1" x1="17.5" y1="-20" x2="1383.5" y2="-788"/>
		<line class="st1" x1="0.5" y1="-20" x2="1366.5" y2="-788"/>
		<line class="st1" x1="408.5" y1="-29.6" x2="1774.5" y2="-797.6"/>
		<line class="st1" x1="391.5" y1="-29.6" x2="1757.5" y2="-797.6"/>
		<line class="st1" x1="374.5" y1="-29.6" x2="1740.5" y2="-797.6"/>
		<line class="st1" x1="357.5" y1="-29.6" x2="1723.5" y2="-797.6"/>
		<line class="st1" x1="340.5" y1="-29.6" x2="1706.5" y2="-797.6"/>
		<line class="st1" x1="323.5" y1="-29.6" x2="1689.5" y2="-797.6"/>
		<line class="st1" x1="306.5" y1="-29.6" x2="1672.5" y2="-797.6"/>
		<line class="st1" x1="289.5" y1="-29.6" x2="1655.5" y2="-797.6"/>
		<line class="st1" x1="272.5" y1="-29.6" x2="1638.5" y2="-797.6"/>
		<line class="st1" x1="255.5" y1="-29.6" x2="1621.5" y2="-797.6"/>
		<line class="st1" x1="238.5" y1="-29.6" x2="1604.5" y2="-797.6"/>
		<line class="st1" x1="221.5" y1="-29.6" x2="1587.5" y2="-797.6"/>
		<line class="st1" x1="204.5" y1="-29.6" x2="1570.5" y2="-797.6"/>
		<line class="st1" x1="187.5" y1="-29.6" x2="1553.5" y2="-797.6"/>
		<line class="st1" x1="170.5" y1="-29.6" x2="1536.5" y2="-797.6"/>
		<line class="st1" x1="153.5" y1="-29.6" x2="1519.5" y2="-797.6"/>
		<line class="st1" x1="136.5" y1="-29.6" x2="1502.5" y2="-797.6"/>
		<line class="st1" x1="119.5" y1="-29.6" x2="1485.5" y2="-797.6"/>
		<line class="st1" x1="102.5" y1="-29.6" x2="1468.5" y2="-797.6"/>
		<line class="st1" x1="85.5" y1="-29.6" x2="1451.5" y2="-797.6"/>
		<line class="st1" x1="68.5" y1="-29.6" x2="1434.5" y2="-797.6"/>
		<line class="st1" x1="51.5" y1="-29.6" x2="1417.5" y2="-797.6"/>
		<line class="st1" x1="34.5" y1="-29.6" x2="1400.5" y2="-797.6"/>
		<line class="st1" x1="17.5" y1="-29.6" x2="1383.5" y2="-797.6"/>
		<line class="st1" x1="0.5" y1="-29.6" x2="1366.5" y2="-797.6"/>
		<line class="st1" x1="408.5" y1="-39.2" x2="1774.5" y2="-807.2"/>
		<line class="st1" x1="391.5" y1="-39.2" x2="1757.5" y2="-807.2"/>
		<line class="st1" x1="374.5" y1="-39.2" x2="1740.5" y2="-807.2"/>
		<line class="st1" x1="357.5" y1="-39.2" x2="1723.5" y2="-807.2"/>
		<line class="st1" x1="340.5" y1="-39.2" x2="1706.5" y2="-807.2"/>
		<line class="st1" x1="323.5" y1="-39.2" x2="1689.5" y2="-807.2"/>
		<line class="st1" x1="306.5" y1="-39.2" x2="1672.5" y2="-807.2"/>
		<line class="st1" x1="289.5" y1="-39.2" x2="1655.5" y2="-807.2"/>
		<line class="st1" x1="272.5" y1="-39.2" x2="1638.5" y2="-807.2"/>
		<line class="st1" x1="255.5" y1="-39.2" x2="1621.5" y2="-807.2"/>
		<line class="st1" x1="238.5" y1="-39.2" x2="1604.5" y2="-807.2"/>
		<line class="st1" x1="221.5" y1="-39.2" x2="1587.5" y2="-807.2"/>
		<line class="st1" x1="204.5" y1="-39.2" x2="1570.5" y2="-807.2"/>
		<line class="st1" x1="187.5" y1="-39.2" x2="1553.5" y2="-807.2"/>
		<line class="st1" x1="170.5" y1="-39.2" x2="1536.5" y2="-807.2"/>
		<line class="st1" x1="153.5" y1="-39.2" x2="1519.5" y2="-807.2"/>
		<line class="st1" x1="136.5" y1="-39.2" x2="1502.5" y2="-807.2"/>
		<line class="st1" x1="119.5" y1="-39.2" x2="1485.5" y2="-807.2"/>
		<line class="st1" x1="102.5" y1="-39.2" x2="1468.5" y2="-807.2"/>
		<line class="st1" x1="85.5" y1="-39.2" x2="1451.5" y2="-807.2"/>
		<line class="st1" x1="68.5" y1="-39.2" x2="1434.5" y2="-807.2"/>
		<line class="st1" x1="51.5" y1="-39.2" x2="1417.5" y2="-807.2"/>
		<line class="st1" x1="34.5" y1="-39.2" x2="1400.5" y2="-807.2"/>
		<line class="st1" x1="17.5" y1="-39.2" x2="1383.5" y2="-807.2"/>
		<line class="st1" x1="0.5" y1="-39.2" x2="1366.5" y2="-807.2"/>
		<line class="st1" x1="408.5" y1="-48.7" x2="1774.5" y2="-816.7"/>
		<line class="st1" x1="391.5" y1="-48.7" x2="1757.5" y2="-816.7"/>
		<line class="st1" x1="374.5" y1="-48.7" x2="1740.5" y2="-816.7"/>
		<line class="st1" x1="357.5" y1="-48.7" x2="1723.5" y2="-816.7"/>
		<line class="st1" x1="340.5" y1="-48.7" x2="1706.5" y2="-816.7"/>
		<line class="st1" x1="323.5" y1="-48.7" x2="1689.5" y2="-816.7"/>
		<line class="st1" x1="306.5" y1="-48.7" x2="1672.5" y2="-816.7"/>
		<line class="st1" x1="289.5" y1="-48.7" x2="1655.5" y2="-816.7"/>
		<line class="st1" x1="272.5" y1="-48.7" x2="1638.5" y2="-816.7"/>
		<line class="st1" x1="255.5" y1="-48.7" x2="1621.5" y2="-816.7"/>
		<line class="st1" x1="238.5" y1="-48.7" x2="1604.5" y2="-816.7"/>
		<line class="st1" x1="221.5" y1="-48.7" x2="1587.5" y2="-816.7"/>
		<line class="st1" x1="204.5" y1="-48.7" x2="1570.5" y2="-816.7"/>
		<line class="st1" x1="187.5" y1="-48.7" x2="1553.5" y2="-816.7"/>
		<line class="st1" x1="170.5" y1="-48.7" x2="1536.5" y2="-816.7"/>
		<line class="st1" x1="153.5" y1="-48.7" x2="1519.5" y2="-816.7"/>
		<line class="st1" x1="136.5" y1="-48.7" x2="1502.5" y2="-816.7"/>
		<line class="st1" x1="119.5" y1="-48.7" x2="1485.5" y2="-816.7"/>
		<line class="st1" x1="102.5" y1="-48.7" x2="1468.5" y2="-816.7"/>
		<line class="st1" x1="85.5" y1="-48.7" x2="1451.5" y2="-816.7"/>
		<line class="st1" x1="68.5" y1="-48.7" x2="1434.5" y2="-816.7"/>
		<line class="st1" x1="51.5" y1="-48.7" x2="1417.5" y2="-816.7"/>
		<line class="st1" x1="34.5" y1="-48.7" x2="1400.5" y2="-816.7"/>
		<line class="st1" x1="17.5" y1="-48.7" x2="1383.5" y2="-816.7"/>
		<line class="st1" x1="0.5" y1="-48.7" x2="1366.5" y2="-816.7"/>
		<line class="st1" x1="408.5" y1="-58.3" x2="1774.5" y2="-826.3"/>
		<line class="st1" x1="391.5" y1="-58.3" x2="1757.5" y2="-826.3"/>
		<line class="st1" x1="374.5" y1="-58.3" x2="1740.5" y2="-826.3"/>
		<line class="st1" x1="357.5" y1="-58.3" x2="1723.5" y2="-826.3"/>
		<line class="st1" x1="340.5" y1="-58.3" x2="1706.5" y2="-826.3"/>
		<line class="st1" x1="323.5" y1="-58.3" x2="1689.5" y2="-826.3"/>
		<line class="st1" x1="306.5" y1="-58.3" x2="1672.5" y2="-826.3"/>
		<line class="st1" x1="289.5" y1="-58.3" x2="1655.5" y2="-826.3"/>
		<line class="st1" x1="272.5" y1="-58.3" x2="1638.5" y2="-826.3"/>
		<line class="st1" x1="255.5" y1="-58.3" x2="1621.5" y2="-826.3"/>
		<line class="st1" x1="238.5" y1="-58.3" x2="1604.5" y2="-826.3"/>
		<line class="st1" x1="221.5" y1="-58.3" x2="1587.5" y2="-826.3"/>
		<line class="st1" x1="204.5" y1="-58.3" x2="1570.5" y2="-826.3"/>
		<line class="st1" x1="187.5" y1="-58.3" x2="1553.5" y2="-826.3"/>
		<line class="st1" x1="170.5" y1="-58.3" x2="1536.5" y2="-826.3"/>
		<line class="st1" x1="153.5" y1="-58.3" x2="1519.5" y2="-826.3"/>
		<line class="st1" x1="136.5" y1="-58.3" x2="1502.5" y2="-826.3"/>
		<line class="st1" x1="119.5" y1="-58.3" x2="1485.5" y2="-826.3"/>
		<line class="st1" x1="102.5" y1="-58.3" x2="1468.5" y2="-826.3"/>
		<line class="st1" x1="85.5" y1="-58.3" x2="1451.5" y2="-826.3"/>
		<line class="st1" x1="68.5" y1="-58.3" x2="1434.5" y2="-826.3"/>
		<line class="st1" x1="51.5" y1="-58.3" x2="1417.5" y2="-826.3"/>
		<line class="st1" x1="34.5" y1="-58.3" x2="1400.5" y2="-826.3"/>
		<line class="st1" x1="17.5" y1="-58.3" x2="1383.5" y2="-826.3"/>
		<line class="st1" x1="0.5" y1="-58.3" x2="1366.5" y2="-826.3"/>
		<line class="st1" x1="408.5" y1="-67.9" x2="1774.5" y2="-835.9"/>
		<line class="st1" x1="391.5" y1="-67.9" x2="1757.5" y2="-835.9"/>
		<line class="st1" x1="374.5" y1="-67.9" x2="1740.5" y2="-835.9"/>
		<line class="st1" x1="357.5" y1="-67.9" x2="1723.5" y2="-835.9"/>
		<line class="st1" x1="340.5" y1="-67.9" x2="1706.5" y2="-835.9"/>
		<line class="st1" x1="323.5" y1="-67.9" x2="1689.5" y2="-835.9"/>
		<line class="st1" x1="306.5" y1="-67.9" x2="1672.5" y2="-835.9"/>
		<line class="st1" x1="289.5" y1="-67.9" x2="1655.5" y2="-835.9"/>
		<line class="st1" x1="272.5" y1="-67.9" x2="1638.5" y2="-835.9"/>
		<line class="st1" x1="255.5" y1="-67.9" x2="1621.5" y2="-835.9"/>
		<line class="st1" x1="238.5" y1="-67.9" x2="1604.5" y2="-835.9"/>
		<line class="st1" x1="221.5" y1="-67.9" x2="1587.5" y2="-835.9"/>
		<line class="st1" x1="204.5" y1="-67.9" x2="1570.5" y2="-835.9"/>
		<line class="st1" x1="187.5" y1="-67.9" x2="1553.5" y2="-835.9"/>
		<line class="st1" x1="170.5" y1="-67.9" x2="1536.5" y2="-835.9"/>
		<line class="st1" x1="153.5" y1="-67.9" x2="1519.5" y2="-835.9"/>
		<line class="st1" x1="136.5" y1="-67.9" x2="1502.5" y2="-835.9"/>
		<line class="st1" x1="119.5" y1="-67.9" x2="1485.5" y2="-835.9"/>
		<line class="st1" x1="102.5" y1="-67.9" x2="1468.5" y2="-835.9"/>
		<line class="st1" x1="85.5" y1="-67.9" x2="1451.5" y2="-835.9"/>
		<line class="st1" x1="68.5" y1="-67.9" x2="1434.5" y2="-835.9"/>
		<line class="st1" x1="51.5" y1="-67.9" x2="1417.5" y2="-835.9"/>
		<line class="st1" x1="34.5" y1="-67.9" x2="1400.5" y2="-835.9"/>
		<line class="st1" x1="17.5" y1="-67.9" x2="1383.5" y2="-835.9"/>
		<line class="st1" x1="0.5" y1="-67.9" x2="1366.5" y2="-835.9"/>
		<line class="st1" x1="408.5" y1="-77.5" x2="1774.5" y2="-845.5"/>
		<line class="st1" x1="391.5" y1="-77.5" x2="1757.5" y2="-845.5"/>
		<line class="st1" x1="374.5" y1="-77.5" x2="1740.5" y2="-845.5"/>
		<line class="st1" x1="357.5" y1="-77.5" x2="1723.5" y2="-845.5"/>
		<line class="st1" x1="340.5" y1="-77.5" x2="1706.5" y2="-845.5"/>
		<line class="st1" x1="323.5" y1="-77.5" x2="1689.5" y2="-845.5"/>
		<line class="st1" x1="306.5" y1="-77.5" x2="1672.5" y2="-845.5"/>
		<line class="st1" x1="289.5" y1="-77.5" x2="1655.5" y2="-845.5"/>
		<line class="st1" x1="272.5" y1="-77.5" x2="1638.5" y2="-845.5"/>
		<line class="st1" x1="255.5" y1="-77.5" x2="1621.5" y2="-845.5"/>
		<line class="st1" x1="238.5" y1="-77.5" x2="1604.5" y2="-845.5"/>
		<line class="st1" x1="221.5" y1="-77.5" x2="1587.5" y2="-845.5"/>
		<line class="st1" x1="204.5" y1="-77.5" x2="1570.5" y2="-845.5"/>
		<line class="st1" x1="187.5" y1="-77.5" x2="1553.5" y2="-845.5"/>
		<line class="st1" x1="170.5" y1="-77.5" x2="1536.5" y2="-845.5"/>
		<line class="st1" x1="153.5" y1="-77.5" x2="1519.5" y2="-845.5"/>
		<line class="st1" x1="136.5" y1="-77.5" x2="1502.5" y2="-845.5"/>
		<line class="st1" x1="119.5" y1="-77.5" x2="1485.5" y2="-845.5"/>
		<line class="st1" x1="102.5" y1="-77.5" x2="1468.5" y2="-845.5"/>
		<line class="st1" x1="85.5" y1="-77.5" x2="1451.5" y2="-845.5"/>
		<line class="st1" x1="68.5" y1="-77.5" x2="1434.5" y2="-845.5"/>
		<line class="st1" x1="51.5" y1="-77.5" x2="1417.5" y2="-845.5"/>
		<line class="st1" x1="34.5" y1="-77.5" x2="1400.5" y2="-845.5"/>
		<line class="st1" x1="17.5" y1="-77.5" x2="1383.5" y2="-845.5"/>
		<line class="st1" x1="0.5" y1="-77.5" x2="1366.5" y2="-845.5"/>
		<line class="st1" x1="408.5" y1="-87" x2="1774.5" y2="-855"/>
		<line class="st1" x1="391.5" y1="-87" x2="1757.5" y2="-855"/>
		<line class="st1" x1="374.5" y1="-87" x2="1740.5" y2="-855"/>
		<line class="st1" x1="357.5" y1="-87" x2="1723.5" y2="-855"/>
		<line class="st1" x1="340.5" y1="-87" x2="1706.5" y2="-855"/>
		<line class="st1" x1="323.5" y1="-87" x2="1689.5" y2="-855"/>
		<line class="st1" x1="306.5" y1="-87" x2="1672.5" y2="-855"/>
		<line class="st1" x1="289.5" y1="-87" x2="1655.5" y2="-855"/>
		<line class="st1" x1="272.5" y1="-87" x2="1638.5" y2="-855"/>
		<line class="st1" x1="255.5" y1="-87" x2="1621.5" y2="-855"/>
		<line class="st1" x1="238.5" y1="-87" x2="1604.5" y2="-855"/>
		<line class="st1" x1="221.5" y1="-87" x2="1587.5" y2="-855"/>
		<line class="st1" x1="204.5" y1="-87" x2="1570.5" y2="-855"/>
		<line class="st1" x1="187.5" y1="-87" x2="1553.5" y2="-855"/>
		<line class="st1" x1="170.5" y1="-87" x2="1536.5" y2="-855"/>
		<line class="st1" x1="153.5" y1="-87" x2="1519.5" y2="-855"/>
		<line class="st1" x1="136.5" y1="-87" x2="1502.5" y2="-855"/>
		<line class="st1" x1="119.5" y1="-87" x2="1485.5" y2="-855"/>
		<line class="st1" x1="102.5" y1="-87" x2="1468.5" y2="-855"/>
		<line class="st1" x1="85.5" y1="-87" x2="1451.5" y2="-855"/>
		<line class="st1" x1="68.5" y1="-87" x2="1434.5" y2="-855"/>
		<line class="st1" x1="51.5" y1="-87" x2="1417.5" y2="-855"/>
		<line class="st1" x1="34.5" y1="-87" x2="1400.5" y2="-855"/>
		<line class="st1" x1="17.5" y1="-87" x2="1383.5" y2="-855"/>
		<line class="st1" x1="0.5" y1="-87" x2="1366.5" y2="-855"/>
		<line class="st1" x1="408.5" y1="-96.6" x2="1774.5" y2="-864.6"/>
		<line class="st1" x1="391.5" y1="-96.6" x2="1757.5" y2="-864.6"/>
		<line class="st1" x1="374.5" y1="-96.6" x2="1740.5" y2="-864.6"/>
		<line class="st1" x1="357.5" y1="-96.6" x2="1723.5" y2="-864.6"/>
		<line class="st1" x1="340.5" y1="-96.6" x2="1706.5" y2="-864.6"/>
		<line class="st1" x1="323.5" y1="-96.6" x2="1689.5" y2="-864.6"/>
		<line class="st1" x1="306.5" y1="-96.6" x2="1672.5" y2="-864.6"/>
		<line class="st1" x1="289.5" y1="-96.6" x2="1655.5" y2="-864.6"/>
		<line class="st1" x1="272.5" y1="-96.6" x2="1638.5" y2="-864.6"/>
		<line class="st1" x1="255.5" y1="-96.6" x2="1621.5" y2="-864.6"/>
		<line class="st1" x1="238.5" y1="-96.6" x2="1604.5" y2="-864.6"/>
		<line class="st1" x1="221.5" y1="-96.6" x2="1587.5" y2="-864.6"/>
		<line class="st1" x1="204.5" y1="-96.6" x2="1570.5" y2="-864.6"/>
		<line class="st1" x1="187.5" y1="-96.6" x2="1553.5" y2="-864.6"/>
		<line class="st1" x1="170.5" y1="-96.6" x2="1536.5" y2="-864.6"/>
		<line class="st1" x1="153.5" y1="-96.6" x2="1519.5" y2="-864.6"/>
		<line class="st1" x1="136.5" y1="-96.6" x2="1502.5" y2="-864.6"/>
		<line class="st1" x1="119.5" y1="-96.6" x2="1485.5" y2="-864.6"/>
		<line class="st1" x1="102.5" y1="-96.6" x2="1468.5" y2="-864.6"/>
		<line class="st1" x1="85.5" y1="-96.6" x2="1451.5" y2="-864.6"/>
		<line class="st1" x1="68.5" y1="-96.6" x2="1434.5" y2="-864.6"/>
		<line class="st1" x1="51.5" y1="-96.6" x2="1417.5" y2="-864.6"/>
		<line class="st1" x1="34.5" y1="-96.6" x2="1400.5" y2="-864.6"/>
		<line class="st1" x1="17.5" y1="-96.6" x2="1383.5" y2="-864.6"/>
		<line class="st1" x1="0.5" y1="-96.6" x2="1366.5" y2="-864.6"/>
		<line class="st1" x1="408.5" y1="-106.2" x2="1774.5" y2="-874.2"/>
		<line class="st1" x1="391.5" y1="-106.2" x2="1757.5" y2="-874.2"/>
		<line class="st1" x1="374.5" y1="-106.2" x2="1740.5" y2="-874.2"/>
		<line class="st1" x1="357.5" y1="-106.2" x2="1723.5" y2="-874.2"/>
		<line class="st1" x1="340.5" y1="-106.2" x2="1706.5" y2="-874.2"/>
		<line class="st1" x1="323.5" y1="-106.2" x2="1689.5" y2="-874.2"/>
		<line class="st1" x1="306.5" y1="-106.2" x2="1672.5" y2="-874.2"/>
		<line class="st1" x1="289.5" y1="-106.2" x2="1655.5" y2="-874.2"/>
		<line class="st1" x1="272.5" y1="-106.2" x2="1638.5" y2="-874.2"/>
		<line class="st1" x1="255.5" y1="-106.2" x2="1621.5" y2="-874.2"/>
		<line class="st1" x1="238.5" y1="-106.2" x2="1604.5" y2="-874.2"/>
		<line class="st1" x1="221.5" y1="-106.2" x2="1587.5" y2="-874.2"/>
		<line class="st1" x1="204.5" y1="-106.2" x2="1570.5" y2="-874.2"/>
		<line class="st1" x1="187.5" y1="-106.2" x2="1553.5" y2="-874.2"/>
		<line class="st1" x1="170.5" y1="-106.2" x2="1536.5" y2="-874.2"/>
		<line class="st1" x1="153.5" y1="-106.2" x2="1519.5" y2="-874.2"/>
		<line class="st1" x1="136.5" y1="-106.2" x2="1502.5" y2="-874.2"/>
		<line class="st1" x1="119.5" y1="-106.2" x2="1485.5" y2="-874.2"/>
		<line class="st1" x1="102.5" y1="-106.2" x2="1468.5" y2="-874.2"/>
		<line class="st1" x1="85.5" y1="-106.2" x2="1451.5" y2="-874.2"/>
		<line class="st1" x1="68.5" y1="-106.2" x2="1434.5" y2="-874.2"/>
		<line class="st1" x1="51.5" y1="-106.2" x2="1417.5" y2="-874.2"/>
		<line class="st1" x1="34.5" y1="-106.2" x2="1400.5" y2="-874.2"/>
		<line class="st1" x1="17.5" y1="-106.2" x2="1383.5" y2="-874.2"/>
		<line class="st1" x1="0.5" y1="-106.2" x2="1366.5" y2="-874.2"/>
		<line class="st1" x1="408.5" y1="-115.7" x2="1774.5" y2="-883.7"/>
		<line class="st1" x1="391.5" y1="-115.7" x2="1757.5" y2="-883.7"/>
		<line class="st1" x1="374.5" y1="-115.7" x2="1740.5" y2="-883.7"/>
		<line class="st1" x1="357.5" y1="-115.7" x2="1723.5" y2="-883.7"/>
		<line class="st1" x1="340.5" y1="-115.7" x2="1706.5" y2="-883.7"/>
		<line class="st1" x1="323.5" y1="-115.7" x2="1689.5" y2="-883.7"/>
		<line class="st1" x1="306.5" y1="-115.7" x2="1672.5" y2="-883.7"/>
		<line class="st1" x1="289.5" y1="-115.7" x2="1655.5" y2="-883.7"/>
		<line class="st1" x1="272.5" y1="-115.7" x2="1638.5" y2="-883.7"/>
		<line class="st1" x1="255.5" y1="-115.7" x2="1621.5" y2="-883.7"/>
		<line class="st1" x1="238.5" y1="-115.7" x2="1604.5" y2="-883.7"/>
		<line class="st1" x1="221.5" y1="-115.7" x2="1587.5" y2="-883.7"/>
		<line class="st1" x1="204.5" y1="-115.7" x2="1570.5" y2="-883.7"/>
		<line class="st1" x1="187.5" y1="-115.7" x2="1553.5" y2="-883.7"/>
		<line class="st1" x1="170.5" y1="-115.7" x2="1536.5" y2="-883.7"/>
		<line class="st1" x1="153.5" y1="-115.7" x2="1519.5" y2="-883.7"/>
		<line class="st1" x1="136.5" y1="-115.7" x2="1502.5" y2="-883.7"/>
		<line class="st1" x1="119.5" y1="-115.7" x2="1485.5" y2="-883.7"/>
		<line class="st1" x1="102.5" y1="-115.7" x2="1468.5" y2="-883.7"/>
		<line class="st1" x1="85.5" y1="-115.7" x2="1451.5" y2="-883.7"/>
		<line class="st1" x1="68.5" y1="-115.7" x2="1434.5" y2="-883.7"/>
		<line class="st1" x1="51.5" y1="-115.7" x2="1417.5" y2="-883.7"/>
		<line class="st1" x1="34.5" y1="-115.7" x2="1400.5" y2="-883.7"/>
		<line class="st1" x1="17.5" y1="-115.7" x2="1383.5" y2="-883.7"/>
		<line class="st1" x1="0.5" y1="-115.7" x2="1366.5" y2="-883.7"/>
		<line class="st1" x1="408.5" y1="-125.3" x2="1774.5" y2="-893.3"/>
		<line class="st1" x1="391.5" y1="-125.3" x2="1757.5" y2="-893.3"/>
		<line class="st1" x1="374.5" y1="-125.3" x2="1740.5" y2="-893.3"/>
		<line class="st1" x1="357.5" y1="-125.3" x2="1723.5" y2="-893.3"/>
		<line class="st1" x1="340.5" y1="-125.3" x2="1706.5" y2="-893.3"/>
		<line class="st1" x1="323.5" y1="-125.3" x2="1689.5" y2="-893.3"/>
		<line class="st1" x1="306.5" y1="-125.3" x2="1672.5" y2="-893.3"/>
		<line class="st1" x1="289.5" y1="-125.3" x2="1655.5" y2="-893.3"/>
		<line class="st1" x1="272.5" y1="-125.3" x2="1638.5" y2="-893.3"/>
		<line class="st1" x1="255.5" y1="-125.3" x2="1621.5" y2="-893.3"/>
		<line class="st1" x1="238.5" y1="-125.3" x2="1604.5" y2="-893.3"/>
		<line class="st1" x1="221.5" y1="-125.3" x2="1587.5" y2="-893.3"/>
		<line class="st1" x1="204.5" y1="-125.3" x2="1570.5" y2="-893.3"/>
		<line class="st1" x1="187.5" y1="-125.3" x2="1553.5" y2="-893.3"/>
		<line class="st1" x1="170.5" y1="-125.3" x2="1536.5" y2="-893.3"/>
		<line class="st1" x1="153.5" y1="-125.3" x2="1519.5" y2="-893.3"/>
		<line class="st1" x1="136.5" y1="-125.3" x2="1502.5" y2="-893.3"/>
		<line class="st1" x1="119.5" y1="-125.3" x2="1485.5" y2="-893.3"/>
		<line class="st1" x1="102.5" y1="-125.3" x2="1468.5" y2="-893.3"/>
		<line class="st1" x1="85.5" y1="-125.3" x2="1451.5" y2="-893.3"/>
		<line class="st1" x1="68.5" y1="-125.3" x2="1434.5" y2="-893.3"/>
		<line class="st1" x1="51.5" y1="-125.3" x2="1417.5" y2="-893.3"/>
		<line class="st1" x1="34.5" y1="-125.3" x2="1400.5" y2="-893.3"/>
		<line class="st1" x1="17.5" y1="-125.3" x2="1383.5" y2="-893.3"/>
		<line class="st1" x1="0.5" y1="-125.3" x2="1366.5" y2="-893.3"/>
		<line class="st1" x1="408.5" y1="-134.9" x2="1774.5" y2="-902.9"/>
		<line class="st1" x1="391.5" y1="-134.9" x2="1757.5" y2="-902.9"/>
		<line class="st1" x1="374.5" y1="-134.9" x2="1740.5" y2="-902.9"/>
		<line class="st1" x1="357.5" y1="-134.9" x2="1723.5" y2="-902.9"/>
		<line class="st1" x1="340.5" y1="-134.9" x2="1706.5" y2="-902.9"/>
		<line class="st1" x1="323.5" y1="-134.9" x2="1689.5" y2="-902.9"/>
		<line class="st1" x1="306.5" y1="-134.9" x2="1672.5" y2="-902.9"/>
		<line class="st1" x1="289.5" y1="-134.9" x2="1655.5" y2="-902.9"/>
		<line class="st1" x1="272.5" y1="-134.9" x2="1638.5" y2="-902.9"/>
		<line class="st1" x1="255.5" y1="-134.9" x2="1621.5" y2="-902.9"/>
		<line class="st1" x1="238.5" y1="-134.9" x2="1604.5" y2="-902.9"/>
		<line class="st1" x1="221.5" y1="-134.9" x2="1587.5" y2="-902.9"/>
		<line class="st1" x1="204.5" y1="-134.9" x2="1570.5" y2="-902.9"/>
		<line class="st1" x1="187.5" y1="-134.9" x2="1553.5" y2="-902.9"/>
		<line class="st1" x1="170.5" y1="-134.9" x2="1536.5" y2="-902.9"/>
		<line class="st1" x1="153.5" y1="-134.9" x2="1519.5" y2="-902.9"/>
		<line class="st1" x1="136.5" y1="-134.9" x2="1502.5" y2="-902.9"/>
		<line class="st1" x1="119.5" y1="-134.9" x2="1485.5" y2="-902.9"/>
		<line class="st1" x1="102.5" y1="-134.9" x2="1468.5" y2="-902.9"/>
		<line class="st1" x1="85.5" y1="-134.9" x2="1451.5" y2="-902.9"/>
		<line class="st1" x1="68.5" y1="-134.9" x2="1434.5" y2="-902.9"/>
		<line class="st1" x1="51.5" y1="-134.9" x2="1417.5" y2="-902.9"/>
		<line class="st1" x1="34.5" y1="-134.9" x2="1400.5" y2="-902.9"/>
		<line class="st1" x1="17.5" y1="-134.9" x2="1383.5" y2="-902.9"/>
		<line class="st1" x1="0.5" y1="-134.9" x2="1366.5" y2="-902.9"/>
		<line class="st1" x1="408.5" y1="-144.5" x2="1774.5" y2="-912.5"/>
		<line class="st1" x1="391.5" y1="-144.5" x2="1757.5" y2="-912.5"/>
		<line class="st1" x1="374.5" y1="-144.5" x2="1740.5" y2="-912.5"/>
		<line class="st1" x1="357.5" y1="-144.5" x2="1723.5" y2="-912.5"/>
		<line class="st1" x1="340.5" y1="-144.5" x2="1706.5" y2="-912.5"/>
		<line class="st1" x1="323.5" y1="-144.5" x2="1689.5" y2="-912.5"/>
		<line class="st1" x1="306.5" y1="-144.5" x2="1672.5" y2="-912.5"/>
		<line class="st1" x1="289.5" y1="-144.5" x2="1655.5" y2="-912.5"/>
		<line class="st1" x1="272.5" y1="-144.5" x2="1638.5" y2="-912.5"/>
		<line class="st1" x1="255.5" y1="-144.5" x2="1621.5" y2="-912.5"/>
		<line class="st1" x1="238.5" y1="-144.5" x2="1604.5" y2="-912.5"/>
		<line class="st1" x1="221.5" y1="-144.5" x2="1587.5" y2="-912.5"/>
		<line class="st1" x1="204.5" y1="-144.5" x2="1570.5" y2="-912.5"/>
		<line class="st1" x1="187.5" y1="-144.5" x2="1553.5" y2="-912.5"/>
		<line class="st1" x1="170.5" y1="-144.5" x2="1536.5" y2="-912.5"/>
		<line class="st1" x1="153.5" y1="-144.5" x2="1519.5" y2="-912.5"/>
		<line class="st1" x1="136.5" y1="-144.5" x2="1502.5" y2="-912.5"/>
		<line class="st1" x1="119.5" y1="-144.5" x2="1485.5" y2="-912.5"/>
		<line class="st1" x1="102.5" y1="-144.5" x2="1468.5" y2="-912.5"/>
		<line class="st1" x1="85.5" y1="-144.5" x2="1451.5" y2="-912.5"/>
		<line class="st1" x1="68.5" y1="-144.5" x2="1434.5" y2="-912.5"/>
		<line class="st1" x1="51.5" y1="-144.5" x2="1417.5" y2="-912.5"/>
		<line class="st1" x1="34.5" y1="-144.5" x2="1400.5" y2="-912.5"/>
		<line class="st1" x1="17.5" y1="-144.5" x2="1383.5" y2="-912.5"/>
		<line class="st1" x1="0.5" y1="-144.5" x2="1366.5" y2="-912.5"/>
		<line class="st1" x1="408.5" y1="-154" x2="1774.5" y2="-922"/>
		<line class="st1" x1="391.5" y1="-154" x2="1757.5" y2="-922"/>
		<line class="st1" x1="374.5" y1="-154" x2="1740.5" y2="-922"/>
		<line class="st1" x1="357.5" y1="-154" x2="1723.5" y2="-922"/>
		<line class="st1" x1="340.5" y1="-154" x2="1706.5" y2="-922"/>
		<line class="st1" x1="323.5" y1="-154" x2="1689.5" y2="-922"/>
		<line class="st1" x1="306.5" y1="-154" x2="1672.5" y2="-922"/>
		<line class="st1" x1="289.5" y1="-154" x2="1655.5" y2="-922"/>
		<line class="st1" x1="272.5" y1="-154" x2="1638.5" y2="-922"/>
		<line class="st1" x1="255.5" y1="-154" x2="1621.5" y2="-922"/>
		<line class="st1" x1="238.5" y1="-154" x2="1604.5" y2="-922"/>
		<line class="st1" x1="221.5" y1="-154" x2="1587.5" y2="-922"/>
		<line class="st1" x1="204.5" y1="-154" x2="1570.5" y2="-922"/>
		<line class="st1" x1="187.5" y1="-154" x2="1553.5" y2="-922"/>
		<line class="st1" x1="170.5" y1="-154" x2="1536.5" y2="-922"/>
		<line class="st1" x1="153.5" y1="-154" x2="1519.5" y2="-922"/>
		<line class="st1" x1="136.5" y1="-154" x2="1502.5" y2="-922"/>
		<line class="st1" x1="119.5" y1="-154" x2="1485.5" y2="-922"/>
		<line class="st1" x1="102.5" y1="-154" x2="1468.5" y2="-922"/>
		<line class="st1" x1="85.5" y1="-154" x2="1451.5" y2="-922"/>
		<line class="st1" x1="68.5" y1="-154" x2="1434.5" y2="-922"/>
		<line class="st1" x1="51.5" y1="-154" x2="1417.5" y2="-922"/>
		<line class="st1" x1="34.5" y1="-154" x2="1400.5" y2="-922"/>
		<line class="st1" x1="17.5" y1="-154" x2="1383.5" y2="-922"/>
		<line class="st1" x1="0.5" y1="-154" x2="1366.5" y2="-922"/>
		<line class="st1" x1="408.5" y1="-163.6" x2="1774.5" y2="-931.6"/>
		<line class="st1" x1="391.5" y1="-163.6" x2="1757.5" y2="-931.6"/>
		<line class="st1" x1="374.5" y1="-163.6" x2="1740.5" y2="-931.6"/>
		<line class="st1" x1="357.5" y1="-163.6" x2="1723.5" y2="-931.6"/>
		<line class="st1" x1="340.5" y1="-163.6" x2="1706.5" y2="-931.6"/>
		<line class="st1" x1="323.5" y1="-163.6" x2="1689.5" y2="-931.6"/>
		<line class="st1" x1="306.5" y1="-163.6" x2="1672.5" y2="-931.6"/>
		<line class="st1" x1="289.5" y1="-163.6" x2="1655.5" y2="-931.6"/>
		<line class="st1" x1="272.5" y1="-163.6" x2="1638.5" y2="-931.6"/>
		<line class="st1" x1="255.5" y1="-163.6" x2="1621.5" y2="-931.6"/>
		<line class="st1" x1="238.5" y1="-163.6" x2="1604.5" y2="-931.6"/>
		<line class="st1" x1="221.5" y1="-163.6" x2="1587.5" y2="-931.6"/>
		<line class="st1" x1="204.5" y1="-163.6" x2="1570.5" y2="-931.6"/>
		<line class="st1" x1="187.5" y1="-163.6" x2="1553.5" y2="-931.6"/>
		<line class="st1" x1="170.5" y1="-163.6" x2="1536.5" y2="-931.6"/>
		<line class="st1" x1="153.5" y1="-163.6" x2="1519.5" y2="-931.6"/>
		<line class="st1" x1="136.5" y1="-163.6" x2="1502.5" y2="-931.6"/>
		<line class="st1" x1="119.5" y1="-163.6" x2="1485.5" y2="-931.6"/>
		<line class="st1" x1="102.5" y1="-163.6" x2="1468.5" y2="-931.6"/>
		<line class="st1" x1="85.5" y1="-163.6" x2="1451.5" y2="-931.6"/>
		<line class="st1" x1="68.5" y1="-163.6" x2="1434.5" y2="-931.6"/>
		<line class="st1" x1="51.5" y1="-163.6" x2="1417.5" y2="-931.6"/>
		<line class="st1" x1="34.5" y1="-163.6" x2="1400.5" y2="-931.6"/>
		<line class="st1" x1="17.5" y1="-163.6" x2="1383.5" y2="-931.6"/>
		<line class="st1" x1="0.5" y1="-163.6" x2="1366.5" y2="-931.6"/>
		<line class="st1" x1="408.5" y1="-173.2" x2="1774.5" y2="-941.2"/>
		<line class="st1" x1="391.5" y1="-173.2" x2="1757.5" y2="-941.2"/>
		<line class="st1" x1="374.5" y1="-173.2" x2="1740.5" y2="-941.2"/>
		<line class="st1" x1="357.5" y1="-173.2" x2="1723.5" y2="-941.2"/>
		<line class="st1" x1="340.5" y1="-173.2" x2="1706.5" y2="-941.2"/>
		<line class="st1" x1="323.5" y1="-173.2" x2="1689.5" y2="-941.2"/>
		<line class="st1" x1="306.5" y1="-173.2" x2="1672.5" y2="-941.2"/>
		<line class="st1" x1="289.5" y1="-173.2" x2="1655.5" y2="-941.2"/>
		<line class="st1" x1="272.5" y1="-173.2" x2="1638.5" y2="-941.2"/>
		<line class="st1" x1="255.5" y1="-173.2" x2="1621.5" y2="-941.2"/>
		<line class="st1" x1="238.5" y1="-173.2" x2="1604.5" y2="-941.2"/>
		<line class="st1" x1="221.5" y1="-173.2" x2="1587.5" y2="-941.2"/>
		<line class="st1" x1="204.5" y1="-173.2" x2="1570.5" y2="-941.2"/>
		<line class="st1" x1="187.5" y1="-173.2" x2="1553.5" y2="-941.2"/>
		<line class="st1" x1="170.5" y1="-173.2" x2="1536.5" y2="-941.2"/>
		<line class="st1" x1="153.5" y1="-173.2" x2="1519.5" y2="-941.2"/>
		<line class="st1" x1="136.5" y1="-173.2" x2="1502.5" y2="-941.2"/>
		<line class="st1" x1="119.5" y1="-173.2" x2="1485.5" y2="-941.2"/>
		<line class="st1" x1="102.5" y1="-173.2" x2="1468.5" y2="-941.2"/>
		<line class="st1" x1="85.5" y1="-173.2" x2="1451.5" y2="-941.2"/>
		<line class="st1" x1="68.5" y1="-173.2" x2="1434.5" y2="-941.2"/>
		<line class="st1" x1="51.5" y1="-173.2" x2="1417.5" y2="-941.2"/>
		<line class="st1" x1="34.5" y1="-173.2" x2="1400.5" y2="-941.2"/>
		<line class="st1" x1="17.5" y1="-173.2" x2="1383.5" y2="-941.2"/>
		<line class="st1" x1="0.5" y1="-173.2" x2="1366.5" y2="-941.2"/>
		<line class="st1" x1="408.5" y1="-182.8" x2="1774.5" y2="-950.8"/>
		<line class="st1" x1="391.5" y1="-182.8" x2="1757.5" y2="-950.8"/>
		<line class="st1" x1="374.5" y1="-182.8" x2="1740.5" y2="-950.8"/>
		<line class="st1" x1="357.5" y1="-182.8" x2="1723.5" y2="-950.8"/>
		<line class="st1" x1="340.5" y1="-182.8" x2="1706.5" y2="-950.8"/>
		<line class="st1" x1="323.5" y1="-182.8" x2="1689.5" y2="-950.8"/>
		<line class="st1" x1="306.5" y1="-182.8" x2="1672.5" y2="-950.8"/>
		<line class="st1" x1="289.5" y1="-182.8" x2="1655.5" y2="-950.8"/>
		<line class="st1" x1="272.5" y1="-182.8" x2="1638.5" y2="-950.8"/>
		<line class="st1" x1="255.5" y1="-182.8" x2="1621.5" y2="-950.8"/>
		<line class="st1" x1="238.5" y1="-182.8" x2="1604.5" y2="-950.8"/>
		<line class="st1" x1="221.5" y1="-182.8" x2="1587.5" y2="-950.8"/>
		<line class="st1" x1="204.5" y1="-182.8" x2="1570.5" y2="-950.8"/>
		<line class="st1" x1="187.5" y1="-182.8" x2="1553.5" y2="-950.8"/>
		<line class="st1" x1="170.5" y1="-182.8" x2="1536.5" y2="-950.8"/>
		<line class="st1" x1="153.5" y1="-182.8" x2="1519.5" y2="-950.8"/>
		<line class="st1" x1="136.5" y1="-182.8" x2="1502.5" y2="-950.8"/>
		<line class="st1" x1="119.5" y1="-182.8" x2="1485.5" y2="-950.8"/>
		<line class="st1" x1="102.5" y1="-182.8" x2="1468.5" y2="-950.8"/>
		<line class="st1" x1="85.5" y1="-182.8" x2="1451.5" y2="-950.8"/>
		<line class="st1" x1="68.5" y1="-182.8" x2="1434.5" y2="-950.8"/>
		<line class="st1" x1="51.5" y1="-182.8" x2="1417.5" y2="-950.8"/>
		<line class="st1" x1="34.5" y1="-182.8" x2="1400.5" y2="-950.8"/>
		<line class="st1" x1="17.5" y1="-182.8" x2="1383.5" y2="-950.8"/>
		<line class="st1" x1="0.5" y1="-182.8" x2="1366.5" y2="-950.8"/>
		<line class="st1" x1="408.5" y1="-192.3" x2="1774.5" y2="-960.3"/>
		<line class="st1" x1="391.5" y1="-192.3" x2="1757.5" y2="-960.3"/>
		<line class="st1" x1="374.5" y1="-192.3" x2="1740.5" y2="-960.3"/>
		<line class="st1" x1="357.5" y1="-192.3" x2="1723.5" y2="-960.3"/>
		<line class="st1" x1="340.5" y1="-192.3" x2="1706.5" y2="-960.3"/>
		<line class="st1" x1="323.5" y1="-192.3" x2="1689.5" y2="-960.3"/>
		<line class="st1" x1="306.5" y1="-192.3" x2="1672.5" y2="-960.3"/>
		<line class="st1" x1="289.5" y1="-192.3" x2="1655.5" y2="-960.3"/>
		<line class="st1" x1="272.5" y1="-192.3" x2="1638.5" y2="-960.3"/>
		<line class="st1" x1="255.5" y1="-192.3" x2="1621.5" y2="-960.3"/>
		<line class="st1" x1="238.5" y1="-192.3" x2="1604.5" y2="-960.3"/>
		<line class="st1" x1="221.5" y1="-192.3" x2="1587.5" y2="-960.3"/>
		<line class="st1" x1="204.5" y1="-192.3" x2="1570.5" y2="-960.3"/>
		<line class="st1" x1="187.5" y1="-192.3" x2="1553.5" y2="-960.3"/>
		<line class="st1" x1="170.5" y1="-192.3" x2="1536.5" y2="-960.3"/>
		<line class="st1" x1="153.5" y1="-192.3" x2="1519.5" y2="-960.3"/>
		<line class="st1" x1="136.5" y1="-192.3" x2="1502.5" y2="-960.3"/>
		<line class="st1" x1="119.5" y1="-192.3" x2="1485.5" y2="-960.3"/>
		<line class="st1" x1="102.5" y1="-192.3" x2="1468.5" y2="-960.3"/>
		<line class="st1" x1="85.5" y1="-192.3" x2="1451.5" y2="-960.3"/>
		<line class="st1" x1="68.5" y1="-192.3" x2="1434.5" y2="-960.3"/>
		<line class="st1" x1="51.5" y1="-192.3" x2="1417.5" y2="-960.3"/>
		<line class="st1" x1="34.5" y1="-192.3" x2="1400.5" y2="-960.3"/>
		<line class="st1" x1="17.5" y1="-192.3" x2="1383.5" y2="-960.3"/>
		<line class="st1" x1="0.5" y1="-192.3" x2="1366.5" y2="-960.3"/>
		<line class="st1" x1="408.5" y1="-201.9" x2="1774.5" y2="-969.9"/>
		<line class="st1" x1="391.5" y1="-201.9" x2="1757.5" y2="-969.9"/>
		<line class="st1" x1="374.5" y1="-201.9" x2="1740.5" y2="-969.9"/>
		<line class="st1" x1="357.5" y1="-201.9" x2="1723.5" y2="-969.9"/>
		<line class="st1" x1="340.5" y1="-201.9" x2="1706.5" y2="-969.9"/>
		<line class="st1" x1="323.5" y1="-201.9" x2="1689.5" y2="-969.9"/>
		<line class="st1" x1="306.5" y1="-201.9" x2="1672.5" y2="-969.9"/>
		<line class="st1" x1="289.5" y1="-201.9" x2="1655.5" y2="-969.9"/>
		<line class="st1" x1="272.5" y1="-201.9" x2="1638.5" y2="-969.9"/>
		<line class="st1" x1="255.5" y1="-201.9" x2="1621.5" y2="-969.9"/>
		<line class="st1" x1="238.5" y1="-201.9" x2="1604.5" y2="-969.9"/>
		<line class="st1" x1="221.5" y1="-201.9" x2="1587.5" y2="-969.9"/>
		<line class="st1" x1="204.5" y1="-201.9" x2="1570.5" y2="-969.9"/>
		<line class="st1" x1="187.5" y1="-201.9" x2="1553.5" y2="-969.9"/>
		<line class="st1" x1="170.5" y1="-201.9" x2="1536.5" y2="-969.9"/>
		<line class="st1" x1="153.5" y1="-201.9" x2="1519.5" y2="-969.9"/>
		<line class="st1" x1="136.5" y1="-201.9" x2="1502.5" y2="-969.9"/>
		<line class="st1" x1="119.5" y1="-201.9" x2="1485.5" y2="-969.9"/>
		<line class="st1" x1="102.5" y1="-201.9" x2="1468.5" y2="-969.9"/>
		<line class="st1" x1="85.5" y1="-201.9" x2="1451.5" y2="-969.9"/>
		<line class="st1" x1="68.5" y1="-201.9" x2="1434.5" y2="-969.9"/>
		<line class="st1" x1="51.5" y1="-201.9" x2="1417.5" y2="-969.9"/>
		<line class="st1" x1="34.5" y1="-201.9" x2="1400.5" y2="-969.9"/>
		<line class="st1" x1="17.5" y1="-201.9" x2="1383.5" y2="-969.9"/>
		<line class="st1" x1="0.5" y1="-201.9" x2="1366.5" y2="-969.9"/>
		<line class="st1" x1="408.5" y1="-211.5" x2="1774.5" y2="-979.5"/>
		<line class="st1" x1="391.5" y1="-211.5" x2="1757.5" y2="-979.5"/>
		<line class="st1" x1="374.5" y1="-211.5" x2="1740.5" y2="-979.5"/>
		<line class="st1" x1="357.5" y1="-211.5" x2="1723.5" y2="-979.5"/>
		<line class="st1" x1="340.5" y1="-211.5" x2="1706.5" y2="-979.5"/>
		<line class="st1" x1="323.5" y1="-211.5" x2="1689.5" y2="-979.5"/>
		<line class="st1" x1="306.5" y1="-211.5" x2="1672.5" y2="-979.5"/>
		<line class="st1" x1="289.5" y1="-211.5" x2="1655.5" y2="-979.5"/>
		<line class="st1" x1="272.5" y1="-211.5" x2="1638.5" y2="-979.5"/>
		<line class="st1" x1="255.5" y1="-211.5" x2="1621.5" y2="-979.5"/>
		<line class="st1" x1="238.5" y1="-211.5" x2="1604.5" y2="-979.5"/>
		<line class="st1" x1="221.5" y1="-211.5" x2="1587.5" y2="-979.5"/>
		<line class="st1" x1="204.5" y1="-211.5" x2="1570.5" y2="-979.5"/>
		<line class="st1" x1="187.5" y1="-211.5" x2="1553.5" y2="-979.5"/>
		<line class="st1" x1="170.5" y1="-211.5" x2="1536.5" y2="-979.5"/>
		<line class="st1" x1="153.5" y1="-211.5" x2="1519.5" y2="-979.5"/>
		<line class="st1" x1="136.5" y1="-211.5" x2="1502.5" y2="-979.5"/>
		<line class="st1" x1="119.5" y1="-211.5" x2="1485.5" y2="-979.5"/>
		<line class="st1" x1="102.5" y1="-211.5" x2="1468.5" y2="-979.5"/>
		<line class="st1" x1="85.5" y1="-211.5" x2="1451.5" y2="-979.5"/>
		<line class="st1" x1="68.5" y1="-211.5" x2="1434.5" y2="-979.5"/>
		<line class="st1" x1="51.5" y1="-211.5" x2="1417.5" y2="-979.5"/>
		<line class="st1" x1="34.5" y1="-211.5" x2="1400.5" y2="-979.5"/>
		<line class="st1" x1="17.5" y1="-211.5" x2="1383.5" y2="-979.5"/>
		<line class="st1" x1="0.5" y1="-211.5" x2="1366.5" y2="-979.5"/>
		<line class="st1" x1="408.5" y1="-221" x2="1774.5" y2="-989"/>
		<line class="st1" x1="391.5" y1="-221" x2="1757.5" y2="-989"/>
		<line class="st1" x1="374.5" y1="-221" x2="1740.5" y2="-989"/>
		<line class="st1" x1="357.5" y1="-221" x2="1723.5" y2="-989"/>
		<line class="st1" x1="340.5" y1="-221" x2="1706.5" y2="-989"/>
		<line class="st1" x1="323.5" y1="-221" x2="1689.5" y2="-989"/>
		<line class="st1" x1="306.5" y1="-221" x2="1672.5" y2="-989"/>
		<line class="st1" x1="289.5" y1="-221" x2="1655.5" y2="-989"/>
		<line class="st1" x1="272.5" y1="-221" x2="1638.5" y2="-989"/>
		<line class="st1" x1="255.5" y1="-221" x2="1621.5" y2="-989"/>
		<line class="st1" x1="238.5" y1="-221" x2="1604.5" y2="-989"/>
		<line class="st1" x1="221.5" y1="-221" x2="1587.5" y2="-989"/>
		<line class="st1" x1="204.5" y1="-221" x2="1570.5" y2="-989"/>
		<line class="st1" x1="187.5" y1="-221" x2="1553.5" y2="-989"/>
		<line class="st1" x1="170.5" y1="-221" x2="1536.5" y2="-989"/>
		<line class="st1" x1="153.5" y1="-221" x2="1519.5" y2="-989"/>
		<line class="st1" x1="136.5" y1="-221" x2="1502.5" y2="-989"/>
		<line class="st1" x1="119.5" y1="-221" x2="1485.5" y2="-989"/>
		<line class="st1" x1="102.5" y1="-221" x2="1468.5" y2="-989"/>
		<line class="st1" x1="85.5" y1="-221" x2="1451.5" y2="-989"/>
		<line class="st1" x1="68.5" y1="-221" x2="1434.5" y2="-989"/>
		<line class="st1" x1="51.5" y1="-221" x2="1417.5" y2="-989"/>
		<line class="st1" x1="34.5" y1="-221" x2="1400.5" y2="-989"/>
		<line class="st1" x1="17.5" y1="-221" x2="1383.5" y2="-989"/>
		<line class="st1" x1="0.5" y1="-221" x2="1366.5" y2="-989"/>
		<line class="st1" x1="408.5" y1="-230.6" x2="1774.5" y2="-998.6"/>
		<line class="st1" x1="391.5" y1="-230.6" x2="1757.5" y2="-998.6"/>
		<line class="st1" x1="374.5" y1="-230.6" x2="1740.5" y2="-998.6"/>
		<line class="st1" x1="357.5" y1="-230.6" x2="1723.5" y2="-998.6"/>
		<line class="st1" x1="340.5" y1="-230.6" x2="1706.5" y2="-998.6"/>
		<line class="st1" x1="323.5" y1="-230.6" x2="1689.5" y2="-998.6"/>
		<line class="st1" x1="306.5" y1="-230.6" x2="1672.5" y2="-998.6"/>
		<line class="st1" x1="289.5" y1="-230.6" x2="1655.5" y2="-998.6"/>
		<line class="st1" x1="272.5" y1="-230.6" x2="1638.5" y2="-998.6"/>
		<line class="st1" x1="255.5" y1="-230.6" x2="1621.5" y2="-998.6"/>
		<line class="st1" x1="238.5" y1="-230.6" x2="1604.5" y2="-998.6"/>
		<line class="st1" x1="221.5" y1="-230.6" x2="1587.5" y2="-998.6"/>
		<line class="st1" x1="204.5" y1="-230.6" x2="1570.5" y2="-998.6"/>
		<line class="st1" x1="187.5" y1="-230.6" x2="1553.5" y2="-998.6"/>
		<line class="st1" x1="170.5" y1="-230.6" x2="1536.5" y2="-998.6"/>
		<line class="st1" x1="153.5" y1="-230.6" x2="1519.5" y2="-998.6"/>
		<line class="st1" x1="136.5" y1="-230.6" x2="1502.5" y2="-998.6"/>
		<line class="st1" x1="119.5" y1="-230.6" x2="1485.5" y2="-998.6"/>
		<line class="st1" x1="102.5" y1="-230.6" x2="1468.5" y2="-998.6"/>
		<line class="st1" x1="85.5" y1="-230.6" x2="1451.5" y2="-998.6"/>
		<line class="st1" x1="68.5" y1="-230.6" x2="1434.5" y2="-998.6"/>
		<line class="st1" x1="51.5" y1="-230.6" x2="1417.5" y2="-998.6"/>
		<line class="st1" x1="34.5" y1="-230.6" x2="1400.5" y2="-998.6"/>
		<line class="st1" x1="17.5" y1="-230.6" x2="1383.5" y2="-998.6"/>
		<line class="st1" x1="0.5" y1="-230.6" x2="1366.5" y2="-998.6"/>
	</g>
</pattern>
<rect class="st2" width="1366" height="537"/>
<rect class="st2" width="1366" height="537"/>
<path class="st3" d="M1366,139.8v255.9c-169.1-65.5-463.5-145.3-648-1.7c-6.1,4.7-12.3,9.3-18.6,13.7
	c-66.5,46.1-147.5,74.4-232.1,90.8C297,531.5,112,516.2,0,500.7v-318c29.6,25.1,64.7,50.8,104,72.4c112,61.4,258.4,89.5,412-24
	c88.7-65.6,201.3-100.2,318.2-115.9C1030.1,88.9,1238.1,115.9,1366,139.8z"/>
<path class="st4" d="M1366,0v537H687c0-44.2,4.3-87.5,12.4-129.3c21.1-109.1,68.3-208.8,134.8-292.6c28.8-36.3,61.3-69.6,96.9-99.3
	c6.5-5.4,13-10.7,19.7-15.8H1366z"/>
<path class="st3" d="M1366,0v537h-239.4c64.5-268.7-131.9-465.7-195.5-521.2C919.1,5.4,911.9,0,911.9,0H1366z"/>
<path class="st3" d="M715.4,537H0V0h468.8C468.8,0,306.8,375,715.4,537z"/>
</svg>
